<svg width="38" height="37" viewBox="0 0 38 37" fill="none" xmlns="http://www.w3.org/2000/svg">
<g clip-path="url(#clip0_11_2090)">
<path opacity="0.996" fill-rule="evenodd" clip-rule="evenodd" d="M16.9696 0.0517619C18.0721 0.057546 19.1746 0.0633305 20.2771 0.0691145C27.2997 0.999624 32.3498 4.64531 35.4276 11.0062C36.2374 12.8805 36.7425 14.8245 36.9429 16.8384C36.9369 17.9889 36.9308 19.1393 36.9248 20.2897C35.9739 27.2811 32.3283 32.3073 25.9881 35.3683C24.1144 36.1779 22.1703 36.683 20.1559 36.8836C19.0054 36.8776 17.855 36.8715 16.7046 36.8655C9.7845 35.915 4.78203 32.3175 1.69718 26.073C0.851571 24.1308 0.322863 22.1147 0.111061 20.0247C0.116845 18.9222 0.12263 17.8197 0.128414 16.7172C0.945099 10.2756 4.15825 5.43896 9.76785 2.20707C12.037 1.01855 14.4376 0.30011 16.9696 0.0517619Z" fill="#605D5C"/>
<path fill-rule="evenodd" clip-rule="evenodd" d="M25.7746 21.2379C25.6978 22.2075 25.6688 23.19 25.6872 24.1856C24.8723 24.1813 24.0574 24.177 23.2425 24.1727C23.2732 22.8421 23.2562 21.5238 23.1913 20.2177C23.0688 19.9719 22.9131 19.9471 22.7244 20.1434C22.6814 21.4852 22.6623 22.8272 22.6673 24.1697C21.373 24.1629 20.0788 24.1561 18.7845 24.1494C18.8154 22.7948 18.7985 21.4525 18.7338 20.1224C18.591 19.9299 18.4472 19.9292 18.3023 20.1202C18.2237 21.4495 18.1927 22.7915 18.2093 24.1463C16.9151 24.1395 15.6208 24.1328 14.3266 24.126C14.3456 22.7836 14.3407 21.4414 14.3117 20.0992C14.125 19.901 13.9691 19.9241 13.844 20.1687C13.7655 21.474 13.7346 22.792 13.7514 24.1229C12.9365 24.1187 12.1215 24.1144 11.3067 24.1101C11.3355 23.1148 11.3168 22.1321 11.2502 21.1617C8.84418 20.5269 7.58212 18.9623 7.46391 16.4681C7.51732 15.485 7.86935 14.624 8.52008 13.8851C9.34968 12.9317 10.3718 12.278 11.5863 11.9238C12.1378 11.8787 12.689 11.8816 13.2401 11.9324C13.5203 11.9825 13.7714 12.0917 13.9934 12.26C14.8174 9.77574 16.5373 8.59834 19.1531 8.72776C21.2038 9.11343 22.5277 10.3068 23.125 12.3079C23.5651 11.9967 24.0571 11.8795 24.6009 11.9561C26.5594 12.1133 28.0526 13.032 29.0804 14.712C29.9176 16.5085 29.7171 18.1852 28.4788 19.7421C27.7222 20.5156 26.8208 21.0142 25.7746 21.2379Z" fill="#FFFEFE"/>
<path fill-rule="evenodd" clip-rule="evenodd" d="M12.3664 14.049C12.6188 14.014 12.8463 14.0631 13.0489 14.1965C13.1074 14.3551 13.0707 14.4867 12.9389 14.5914C11.2763 14.7105 10.3727 15.6047 10.228 17.274C9.90244 17.3919 9.74723 17.2712 9.7625 16.912C10.0061 15.3835 10.8741 14.4291 12.3664 14.049Z" fill="#605D5C"/>
<path fill-rule="evenodd" clip-rule="evenodd" d="M24.158 14.1108C25.9656 14.2506 27.0153 15.215 27.3071 17.004C27.3186 17.3633 27.1621 17.4824 26.8378 17.3611C26.7113 15.691 25.8172 14.7873 24.1552 14.6502C23.9702 14.4699 23.9711 14.2901 24.158 14.1108Z" fill="#605D5C"/>
<path fill-rule="evenodd" clip-rule="evenodd" d="M13.8442 20.1686C13.8372 21.511 13.8301 22.8533 13.8231 24.1957C12.9602 24.1912 12.0972 24.1867 11.2342 24.1821C11.2395 23.1754 11.2448 22.1686 11.2501 21.1618C11.3166 22.1323 11.3354 23.1152 11.3065 24.1106C12.1215 24.1149 12.9366 24.1192 13.7516 24.1234C13.7348 22.7924 13.7657 21.4741 13.8442 20.1686Z" fill="#FFECDA"/>
<path fill-rule="evenodd" clip-rule="evenodd" d="M18.3029 20.1201C18.2957 21.4865 18.2885 22.8528 18.2814 24.2191C16.9503 24.2359 15.632 24.205 14.3265 24.1265C15.621 24.1333 16.9154 24.1401 18.2098 24.1469C18.1932 22.7918 18.2242 21.4496 18.3029 20.1201Z" fill="#FFE0C1"/>
<path fill-rule="evenodd" clip-rule="evenodd" d="M18.7339 20.1223C18.7986 21.4526 18.8155 22.795 18.7847 24.1498C20.0791 24.1566 21.3735 24.1634 22.668 24.1702C21.3617 24.235 20.0432 24.2521 18.7124 24.2213C18.7195 22.855 18.7267 21.4887 18.7339 20.1223Z" fill="#FFE0C1"/>
<path fill-rule="evenodd" clip-rule="evenodd" d="M23.1914 20.2178C23.2563 21.524 23.2733 22.8425 23.2426 24.1734C24.0576 24.1776 24.8726 24.1819 25.6876 24.1862C25.6692 23.1905 25.6983 22.2079 25.775 21.2381C25.7697 22.2449 25.7644 23.2517 25.7591 24.2585C24.8962 24.2539 24.0332 24.2494 23.1703 24.2449C23.1773 22.9025 23.1844 21.5602 23.1914 20.2178Z" fill="#FFECDA"/>
<path fill-rule="evenodd" clip-rule="evenodd" d="M11.2316 24.6848C16.073 24.7102 20.9145 24.7356 25.7559 24.761C25.762 25.8878 25.7441 27.0143 25.7022 28.1403C25.6661 28.176 25.6299 28.2118 25.5938 28.2476C20.848 28.2706 16.1024 28.2457 11.3571 28.1729C11.3213 28.1367 11.2855 28.1006 11.2498 28.0644C11.2197 26.938 11.2136 25.8115 11.2316 24.6848Z" fill="#FFFEFD"/>
</g>
<defs>
<clipPath id="clip0_11_2090">
<rect width="36.8146" height="36.8146" fill="white" transform="translate(0.251953) rotate(0.300595)"/>
</clipPath>
</defs>
</svg>
<svg width="38" height="37" viewBox="0 0 38 37" fill="none" xmlns="http://www.w3.org/2000/svg">
<g clip-path="url(#clip0_11_2090)">
<path opacity="0.996" fill-rule="evenodd" clip-rule="evenodd" d="M16.9696 0.0517619C18.0721 0.057546 19.1746 0.0633305 20.2771 0.0691145C27.2997 0.999624 32.3498 4.64531 35.4276 11.0062C36.2374 12.8805 36.7425 14.8245 36.9429 16.8384C36.9369 17.9889 36.9308 19.1393 36.9248 20.2897C35.9739 27.2811 32.3283 32.3073 25.9881 35.3683C24.1144 36.1779 22.1703 36.683 20.1559 36.8836C19.0054 36.8776 17.855 36.8715 16.7046 36.8655C9.7845 35.915 4.78203 32.3175 1.69718 26.073C0.851571 24.1308 0.322863 22.1147 0.111061 20.0247C0.116845 18.9222 0.12263 17.8197 0.128414 16.7172C0.945099 10.2756 4.15825 5.43896 9.76785 2.20707C12.037 1.01855 14.4376 0.30011 16.9696 0.0517619Z" fill="#605D5C"/>
<path fill-rule="evenodd" clip-rule="evenodd" d="M25.7746 21.2379C25.6978 22.2075 25.6688 23.19 25.6872 24.1856C24.8723 24.1813 24.0574 24.177 23.2425 24.1727C23.2732 22.8421 23.2562 21.5238 23.1913 20.2177C23.0688 19.9719 22.9131 19.9471 22.7244 20.1434C22.6814 21.4852 22.6623 22.8272 22.6673 24.1697C21.373 24.1629 20.0788 24.1561 18.7845 24.1494C18.8154 22.7948 18.7985 21.4525 18.7338 20.1224C18.591 19.9299 18.4472 19.9292 18.3023 20.1202C18.2237 21.4495 18.1927 22.7915 18.2093 24.1463C16.9151 24.1395 15.6208 24.1328 14.3266 24.126C14.3456 22.7836 14.3407 21.4414 14.3117 20.0992C14.125 19.901 13.9691 19.9241 13.844 20.1687C13.7655 21.474 13.7346 22.792 13.7514 24.1229C12.9365 24.1187 12.1215 24.1144 11.3067 24.1101C11.3355 23.1148 11.3168 22.1321 11.2502 21.1617C8.84418 20.5269 7.58212 18.9623 7.46391 16.4681C7.51732 15.485 7.86935 14.624 8.52008 13.8851C9.34968 12.9317 10.3718 12.278 11.5863 11.9238C12.1378 11.8787 12.689 11.8816 13.2401 11.9324C13.5203 11.9825 13.7714 12.0917 13.9934 12.26C14.8174 9.77574 16.5373 8.59834 19.1531 8.72776C21.2038 9.11343 22.5277 10.3068 23.125 12.3079C23.5651 11.9967 24.0571 11.8795 24.6009 11.9561C26.5594 12.1133 28.0526 13.032 29.0804 14.712C29.9176 16.5085 29.7171 18.1852 28.4788 19.7421C27.7222 20.5156 26.8208 21.0142 25.7746 21.2379Z" fill="#FFFEFE"/>
<path fill-rule="evenodd" clip-rule="evenodd" d="M12.3664 14.049C12.6188 14.014 12.8463 14.0631 13.0489 14.1965C13.1074 14.3551 13.0707 14.4867 12.9389 14.5914C11.2763 14.7105 10.3727 15.6047 10.228 17.274C9.90244 17.3919 9.74723 17.2712 9.7625 16.912C10.0061 15.3835 10.8741 14.4291 12.3664 14.049Z" fill="#605D5C"/>
<path fill-rule="evenodd" clip-rule="evenodd" d="M24.158 14.1108C25.9656 14.2506 27.0153 15.215 27.3071 17.004C27.3186 17.3633 27.1621 17.4824 26.8378 17.3611C26.7113 15.691 25.8172 14.7873 24.1552 14.6502C23.9702 14.4699 23.9711 14.2901 24.158 14.1108Z" fill="#605D5C"/>
<path fill-rule="evenodd" clip-rule="evenodd" d="M13.8442 20.1686C13.8372 21.511 13.8301 22.8533 13.8231 24.1957C12.9602 24.1912 12.0972 24.1867 11.2342 24.1821C11.2395 23.1754 11.2448 22.1686 11.2501 21.1618C11.3166 22.1323 11.3354 23.1152 11.3065 24.1106C12.1215 24.1149 12.9366 24.1192 13.7516 24.1234C13.7348 22.7924 13.7657 21.4741 13.8442 20.1686Z" fill="#FFECDA"/>
<path fill-rule="evenodd" clip-rule="evenodd" d="M18.3029 20.1201C18.2957 21.4865 18.2885 22.8528 18.2814 24.2191C16.9503 24.2359 15.632 24.205 14.3265 24.1265C15.621 24.1333 16.9154 24.1401 18.2098 24.1469C18.1932 22.7918 18.2242 21.4496 18.3029 20.1201Z" fill="#FFE0C1"/>
<path fill-rule="evenodd" clip-rule="evenodd" d="M18.7339 20.1223C18.7986 21.4526 18.8155 22.795 18.7847 24.1498C20.0791 24.1566 21.3735 24.1634 22.668 24.1702C21.3617 24.235 20.0432 24.2521 18.7124 24.2213C18.7195 22.855 18.7267 21.4887 18.7339 20.1223Z" fill="#FFE0C1"/>
<path fill-rule="evenodd" clip-rule="evenodd" d="M23.1914 20.2178C23.2563 21.524 23.2733 22.8425 23.2426 24.1734C24.0576 24.1776 24.8726 24.1819 25.6876 24.1862C25.6692 23.1905 25.6983 22.2079 25.775 21.2381C25.7697 22.2449 25.7644 23.2517 25.7591 24.2585C24.8962 24.2539 24.0332 24.2494 23.1703 24.2449C23.1773 22.9025 23.1844 21.5602 23.1914 20.2178Z" fill="#FFECDA"/>
<path fill-rule="evenodd" clip-rule="evenodd" d="M11.2316 24.6848C16.073 24.7102 20.9145 24.7356 25.7559 24.761C25.762 25.8878 25.7441 27.0143 25.7022 28.1403C25.6661 28.176 25.6299 28.2118 25.5938 28.2476C20.848 28.2706 16.1024 28.2457 11.3571 28.1729C11.3213 28.1367 11.2855 28.1006 11.2498 28.0644C11.2197 26.938 11.2136 25.8115 11.2316 24.6848Z" fill="#FFFEFD"/>
</g>
<defs>
<clipPath id="clip0_11_2090">
<rect width="36.8146" height="36.8146" fill="white" transform="translate(0.251953) rotate(0.300595)"/>
</clipPath>
</defs>
</svg>
<svg width="38" height="37" viewBox="0 0 38 37" fill="none" xmlns="http://www.w3.org/2000/svg">
<g clip-path="url(#clip0_11_2090)">
<path opacity="0.996" fill-rule="evenodd" clip-rule="evenodd" d="M16.9696 0.0517619C18.0721 0.057546 19.1746 0.0633305 20.2771 0.0691145C27.2997 0.999624 32.3498 4.64531 35.4276 11.0062C36.2374 12.8805 36.7425 14.8245 36.9429 16.8384C36.9369 17.9889 36.9308 19.1393 36.9248 20.2897C35.9739 27.2811 32.3283 32.3073 25.9881 35.3683C24.1144 36.1779 22.1703 36.683 20.1559 36.8836C19.0054 36.8776 17.855 36.8715 16.7046 36.8655C9.7845 35.915 4.78203 32.3175 1.69718 26.073C0.851571 24.1308 0.322863 22.1147 0.111061 20.0247C0.116845 18.9222 0.12263 17.8197 0.128414 16.7172C0.945099 10.2756 4.15825 5.43896 9.76785 2.20707C12.037 1.01855 14.4376 0.30011 16.9696 0.0517619Z" fill="#605D5C"/>
<path fill-rule="evenodd" clip-rule="evenodd" d="M25.7746 21.2379C25.6978 22.2075 25.6688 23.19 25.6872 24.1856C24.8723 24.1813 24.0574 24.177 23.2425 24.1727C23.2732 22.8421 23.2562 21.5238 23.1913 20.2177C23.0688 19.9719 22.9131 19.9471 22.7244 20.1434C22.6814 21.4852 22.6623 22.8272 22.6673 24.1697C21.373 24.1629 20.0788 24.1561 18.7845 24.1494C18.8154 22.7948 18.7985 21.4525 18.7338 20.1224C18.591 19.9299 18.4472 19.9292 18.3023 20.1202C18.2237 21.4495 18.1927 22.7915 18.2093 24.1463C16.9151 24.1395 15.6208 24.1328 14.3266 24.126C14.3456 22.7836 14.3407 21.4414 14.3117 20.0992C14.125 19.901 13.9691 19.9241 13.844 20.1687C13.7655 21.474 13.7346 22.792 13.7514 24.1229C12.9365 24.1187 12.1215 24.1144 11.3067 24.1101C11.3355 23.1148 11.3168 22.1321 11.2502 21.1617C8.84418 20.5269 7.58212 18.9623 7.46391 16.4681C7.51732 15.485 7.86935 14.624 8.52008 13.8851C9.34968 12.9317 10.3718 12.278 11.5863 11.9238C12.1378 11.8787 12.689 11.8816 13.2401 11.9324C13.5203 11.9825 13.7714 12.0917 13.9934 12.26C14.8174 9.77574 16.5373 8.59834 19.1531 8.72776C21.2038 9.11343 22.5277 10.3068 23.125 12.3079C23.5651 11.9967 24.0571 11.8795 24.6009 11.9561C26.5594 12.1133 28.0526 13.032 29.0804 14.712C29.9176 16.5085 29.7171 18.1852 28.4788 19.7421C27.7222 20.5156 26.8208 21.0142 25.7746 21.2379Z" fill="#FFFEFE"/>
<path fill-rule="evenodd" clip-rule="evenodd" d="M12.3664 14.049C12.6188 14.014 12.8463 14.0631 13.0489 14.1965C13.1074 14.3551 13.0707 14.4867 12.9389 14.5914C11.2763 14.7105 10.3727 15.6047 10.228 17.274C9.90244 17.3919 9.74723 17.2712 9.7625 16.912C10.0061 15.3835 10.8741 14.4291 12.3664 14.049Z" fill="#605D5C"/>
<path fill-rule="evenodd" clip-rule="evenodd" d="M24.158 14.1108C25.9656 14.2506 27.0153 15.215 27.3071 17.004C27.3186 17.3633 27.1621 17.4824 26.8378 17.3611C26.7113 15.691 25.8172 14.7873 24.1552 14.6502C23.9702 14.4699 23.9711 14.2901 24.158 14.1108Z" fill="#605D5C"/>
<path fill-rule="evenodd" clip-rule="evenodd" d="M13.8442 20.1686C13.8372 21.511 13.8301 22.8533 13.8231 24.1957C12.9602 24.1912 12.0972 24.1867 11.2342 24.1821C11.2395 23.1754 11.2448 22.1686 11.2501 21.1618C11.3166 22.1323 11.3354 23.1152 11.3065 24.1106C12.1215 24.1149 12.9366 24.1192 13.7516 24.1234C13.7348 22.7924 13.7657 21.4741 13.8442 20.1686Z" fill="#FFECDA"/>
<path fill-rule="evenodd" clip-rule="evenodd" d="M18.3029 20.1201C18.2957 21.4865 18.2885 22.8528 18.2814 24.2191C16.9503 24.2359 15.632 24.205 14.3265 24.1265C15.621 24.1333 16.9154 24.1401 18.2098 24.1469C18.1932 22.7918 18.2242 21.4496 18.3029 20.1201Z" fill="#FFE0C1"/>
<path fill-rule="evenodd" clip-rule="evenodd" d="M18.7339 20.1223C18.7986 21.4526 18.8155 22.795 18.7847 24.1498C20.0791 24.1566 21.3735 24.1634 22.668 24.1702C21.3617 24.235 20.0432 24.2521 18.7124 24.2213C18.7195 22.855 18.7267 21.4887 18.7339 20.1223Z" fill="#FFE0C1"/>
<path fill-rule="evenodd" clip-rule="evenodd" d="M23.1914 20.2178C23.2563 21.524 23.2733 22.8425 23.2426 24.1734C24.0576 24.1776 24.8726 24.1819 25.6876 24.1862C25.6692 23.1905 25.6983 22.2079 25.775 21.2381C25.7697 22.2449 25.7644 23.2517 25.7591 24.2585C24.8962 24.2539 24.0332 24.2494 23.1703 24.2449C23.1773 22.9025 23.1844 21.5602 23.1914 20.2178Z" fill="#FFECDA"/>
<path fill-rule="evenodd" clip-rule="evenodd" d="M11.2316 24.6848C16.073 24.7102 20.9145 24.7356 25.7559 24.761C25.762 25.8878 25.7441 27.0143 25.7022 28.1403C25.6661 28.176 25.6299 28.2118 25.5938 28.2476C20.848 28.2706 16.1024 28.2457 11.3571 28.1729C11.3213 28.1367 11.2855 28.1006 11.2498 28.0644C11.2197 26.938 11.2136 25.8115 11.2316 24.6848Z" fill="#FFFEFD"/>
</g>
<defs>
<clipPath id="clip0_11_2090">
<rect width="36.8146" height="36.8146" fill="white" transform="translate(0.251953) rotate(0.300595)"/>
</clipPath>
</defs>
</svg>
<svg width="38" height="37" viewBox="0 0 38 37" fill="none" xmlns="http://www.w3.org/2000/svg">
<g clip-path="url(#clip0_11_2090)">
<path opacity="0.996" fill-rule="evenodd" clip-rule="evenodd" d="M16.9696 0.0517619C18.0721 0.057546 19.1746 0.0633305 20.2771 0.0691145C27.2997 0.999624 32.3498 4.64531 35.4276 11.0062C36.2374 12.8805 36.7425 14.8245 36.9429 16.8384C36.9369 17.9889 36.9308 19.1393 36.9248 20.2897C35.9739 27.2811 32.3283 32.3073 25.9881 35.3683C24.1144 36.1779 22.1703 36.683 20.1559 36.8836C19.0054 36.8776 17.855 36.8715 16.7046 36.8655C9.7845 35.915 4.78203 32.3175 1.69718 26.073C0.851571 24.1308 0.322863 22.1147 0.111061 20.0247C0.116845 18.9222 0.12263 17.8197 0.128414 16.7172C0.945099 10.2756 4.15825 5.43896 9.76785 2.20707C12.037 1.01855 14.4376 0.30011 16.9696 0.0517619Z" fill="#605D5C"/>
<path fill-rule="evenodd" clip-rule="evenodd" d="M25.7746 21.2379C25.6978 22.2075 25.6688 23.19 25.6872 24.1856C24.8723 24.1813 24.0574 24.177 23.2425 24.1727C23.2732 22.8421 23.2562 21.5238 23.1913 20.2177C23.0688 19.9719 22.9131 19.9471 22.7244 20.1434C22.6814 21.4852 22.6623 22.8272 22.6673 24.1697C21.373 24.1629 20.0788 24.1561 18.7845 24.1494C18.8154 22.7948 18.7985 21.4525 18.7338 20.1224C18.591 19.9299 18.4472 19.9292 18.3023 20.1202C18.2237 21.4495 18.1927 22.7915 18.2093 24.1463C16.9151 24.1395 15.6208 24.1328 14.3266 24.126C14.3456 22.7836 14.3407 21.4414 14.3117 20.0992C14.125 19.901 13.9691 19.9241 13.844 20.1687C13.7655 21.474 13.7346 22.792 13.7514 24.1229C12.9365 24.1187 12.1215 24.1144 11.3067 24.1101C11.3355 23.1148 11.3168 22.1321 11.2502 21.1617C8.84418 20.5269 7.58212 18.9623 7.46391 16.4681C7.51732 15.485 7.86935 14.624 8.52008 13.8851C9.34968 12.9317 10.3718 12.278 11.5863 11.9238C12.1378 11.8787 12.689 11.8816 13.2401 11.9324C13.5203 11.9825 13.7714 12.0917 13.9934 12.26C14.8174 9.77574 16.5373 8.59834 19.1531 8.72776C21.2038 9.11343 22.5277 10.3068 23.125 12.3079C23.5651 11.9967 24.0571 11.8795 24.6009 11.9561C26.5594 12.1133 28.0526 13.032 29.0804 14.712C29.9176 16.5085 29.7171 18.1852 28.4788 19.7421C27.7222 20.5156 26.8208 21.0142 25.7746 21.2379Z" fill="#FFFEFE"/>
<path fill-rule="evenodd" clip-rule="evenodd" d="M12.3664 14.049C12.6188 14.014 12.8463 14.0631 13.0489 14.1965C13.1074 14.3551 13.0707 14.4867 12.9389 14.5914C11.2763 14.7105 10.3727 15.6047 10.228 17.274C9.90244 17.3919 9.74723 17.2712 9.7625 16.912C10.0061 15.3835 10.8741 14.4291 12.3664 14.049Z" fill="#605D5C"/>
<path fill-rule="evenodd" clip-rule="evenodd" d="M24.158 14.1108C25.9656 14.2506 27.0153 15.215 27.3071 17.004C27.3186 17.3633 27.1621 17.4824 26.8378 17.3611C26.7113 15.691 25.8172 14.7873 24.1552 14.6502C23.9702 14.4699 23.9711 14.2901 24.158 14.1108Z" fill="#605D5C"/>
<path fill-rule="evenodd" clip-rule="evenodd" d="M13.8442 20.1686C13.8372 21.511 13.8301 22.8533 13.8231 24.1957C12.9602 24.1912 12.0972 24.1867 11.2342 24.1821C11.2395 23.1754 11.2448 22.1686 11.2501 21.1618C11.3166 22.1323 11.3354 23.1152 11.3065 24.1106C12.1215 24.1149 12.9366 24.1192 13.7516 24.1234C13.7348 22.7924 13.7657 21.4741 13.8442 20.1686Z" fill="#FFECDA"/>
<path fill-rule="evenodd" clip-rule="evenodd" d="M18.3029 20.1201C18.2957 21.4865 18.2885 22.8528 18.2814 24.2191C16.9503 24.2359 15.632 24.205 14.3265 24.1265C15.621 24.1333 16.9154 24.1401 18.2098 24.1469C18.1932 22.7918 18.2242 21.4496 18.3029 20.1201Z" fill="#FFE0C1"/>
<path fill-rule="evenodd" clip-rule="evenodd" d="M18.7339 20.1223C18.7986 21.4526 18.8155 22.795 18.7847 24.1498C20.0791 24.1566 21.3735 24.1634 22.668 24.1702C21.3617 24.235 20.0432 24.2521 18.7124 24.2213C18.7195 22.855 18.7267 21.4887 18.7339 20.1223Z" fill="#FFE0C1"/>
<path fill-rule="evenodd" clip-rule="evenodd" d="M23.1914 20.2178C23.2563 21.524 23.2733 22.8425 23.2426 24.1734C24.0576 24.1776 24.8726 24.1819 25.6876 24.1862C25.6692 23.1905 25.6983 22.2079 25.775 21.2381C25.7697 22.2449 25.7644 23.2517 25.7591 24.2585C24.8962 24.2539 24.0332 24.2494 23.1703 24.2449C23.1773 22.9025 23.1844 21.5602 23.1914 20.2178Z" fill="#FFECDA"/>
<path fill-rule="evenodd" clip-rule="evenodd" d="M11.2316 24.6848C16.073 24.7102 20.9145 24.7356 25.7559 24.761C25.762 25.8878 25.7441 27.0143 25.7022 28.1403C25.6661 28.176 25.6299 28.2118 25.5938 28.2476C20.848 28.2706 16.1024 28.2457 11.3571 28.1729C11.3213 28.1367 11.2855 28.1006 11.2498 28.0644C11.2197 26.938 11.2136 25.8115 11.2316 24.6848Z" fill="#FFFEFD"/>
</g>
<defs>
<clipPath id="clip0_11_2090">
<rect width="36.8146" height="36.8146" fill="white" transform="translate(0.251953) rotate(0.300595)"/>
</clipPath>
</defs>
</svg>
