<svg width="25" height="24" viewBox="0 0 25 24" fill="none" xmlns="http://www.w3.org/2000/svg">
<g clip-path="url(#clip0_11_2195)">
<path opacity="0.924" fill-rule="evenodd" clip-rule="evenodd" d="M7.76971 3.49225C8.90831 3.44429 10.0333 3.54585 11.1447 3.79694C11.3589 3.91607 11.4292 4.09575 11.3557 4.336C11.2755 4.47134 11.1584 4.53384 11.0041 4.5235C9.95156 4.31981 8.88904 4.21825 7.81659 4.21882C7.59515 4.10466 7.52484 3.92498 7.60565 3.67975C7.67015 3.62326 7.72481 3.56077 7.76971 3.49225Z" fill="white"/>
<path opacity="0.909" fill-rule="evenodd" clip-rule="evenodd" d="M6.7854 3.53906C7.23488 3.63619 7.32863 3.87838 7.06665 4.26562C6.61946 4.37416 6.16637 4.42104 5.70727 4.40625C5.48026 4.20096 5.4646 3.98221 5.6604 3.75C6.04004 3.67167 6.41504 3.60135 6.7854 3.53906Z" fill="white"/>
<path opacity="0.912" fill-rule="evenodd" clip-rule="evenodd" d="M4.11323 4.05469C4.4958 4.05461 4.64424 4.24211 4.55854 4.61719C4.51948 4.66406 4.48041 4.71094 4.44135 4.75781C3.91743 4.91423 3.40181 5.09391 2.89448 5.29688C2.48825 5.37487 2.30856 5.21081 2.35541 4.80469C2.37722 4.73761 2.41628 4.68293 2.4726 4.64063C3.01445 4.41588 3.56132 4.22057 4.11323 4.05469Z" fill="white"/>
<path opacity="0.928" fill-rule="evenodd" clip-rule="evenodd" d="M12.9726 4.42975C13.3392 4.4078 13.6986 4.44687 14.0508 4.54693C16.8008 5.3282 19.5508 6.10942 22.3008 6.89068C23.0393 7.17662 23.3753 7.71568 23.3086 8.50787C22.5794 11.1906 21.8137 13.8625 21.0117 16.5235C20.6029 17.1444 20.0326 17.3709 19.3008 17.2032C18.6327 17.0169 17.9686 16.8216 17.3086 16.6172C16.7042 17.1264 16.087 17.6185 15.457 18.0938C14.8718 18.405 14.2468 18.5456 13.582 18.5157C13.0331 18.9866 12.4706 19.4397 11.8945 19.8751C11.1047 20.2651 10.3547 20.2026 9.64452 19.6876C9.01171 18.9297 8.3789 18.172 7.74609 17.4141C7.14721 16.6182 7.10034 15.79 7.60546 14.9297C8.04651 14.4885 8.51526 14.0822 9.01171 13.711C8.91923 12.5212 9.35676 11.5837 10.3242 10.8985C10.8794 9.00573 11.4419 7.11512 12.0117 5.22662C12.2292 4.82884 12.5495 4.56324 12.9726 4.42975ZM13.1133 5.17975C13.4698 5.16348 13.7979 5.24158 14.0976 5.41412C13.7727 6.45934 13.4524 7.5062 13.1367 8.55475C12.5894 9.06273 12.0191 9.54714 11.4258 10.0079C11.8171 8.4917 12.2624 6.97604 12.7617 5.461C12.8608 5.33814 12.978 5.24439 13.1133 5.17975ZM14.8476 5.55475C17.2168 6.24864 19.5918 6.92832 21.9726 7.59381C22.4664 7.76097 22.6461 8.09692 22.5117 8.60162C21.8054 11.1422 21.0711 13.6734 20.3086 16.1954C20.1706 16.3893 19.9831 16.4987 19.7461 16.5235C19.173 16.369 18.6027 16.2049 18.0351 16.0313C19.0021 15.2702 19.9474 14.4811 20.8711 13.6641C21.2119 13.0324 21.1103 12.4856 20.5664 12.0235C20.724 11.8622 20.8881 11.706 21.0586 11.5547C21.4595 10.8719 21.3423 10.286 20.707 9.79693C21.0343 9.30714 21.0108 8.83056 20.6367 8.36725C20.0991 7.89442 19.5522 7.87881 18.9961 8.32037C18.6407 7.59208 18.086 7.38114 17.332 7.68756C16.7645 8.116 16.2098 8.56131 15.668 9.0235C15.6311 8.50483 15.4358 8.05951 15.082 7.68756C14.7968 7.52847 14.5156 7.53625 14.2383 7.711C14.4101 6.99372 14.6132 6.27498 14.8476 5.55475ZM17.7539 8.32037C18.169 8.30504 18.333 8.49254 18.2461 8.88287C17.0481 9.89186 15.8371 10.8841 14.6133 11.8594C14.3742 12.2069 14.4523 12.4335 14.8476 12.5391C14.9756 12.5487 15.0849 12.5097 15.1758 12.4219C16.5125 11.3394 17.8407 10.2456 19.1601 9.14068C19.3488 8.98398 19.5519 8.85118 19.7695 8.74225C20.139 8.84443 20.2406 9.0632 20.0742 9.3985C18.5664 10.6251 17.0586 11.8516 15.5508 13.0782C15.3601 13.4289 15.4538 13.6555 15.832 13.7579C15.9309 13.7319 16.0247 13.6928 16.1133 13.6407C17.3476 12.625 18.582 11.6094 19.8164 10.5938C20.0675 10.3714 20.294 10.3949 20.4961 10.6641C20.5428 10.8379 20.5116 10.9942 20.4023 11.1329C19.2794 12.0214 18.17 12.9276 17.0742 13.8516C16.9492 14.1798 17.0587 14.3829 17.4023 14.461C17.4786 14.4551 17.5489 14.4317 17.6133 14.3907C18.2519 13.8928 18.8769 13.3772 19.4883 12.8438C19.6183 12.728 19.7667 12.642 19.9336 12.586C20.2737 12.6702 20.383 12.8734 20.2617 13.1954C18.5637 14.6106 16.8528 16.0091 15.1289 17.3907C14.5876 17.6971 14.0095 17.8064 13.3945 17.7188C12.8341 18.1385 12.2872 18.576 11.7539 19.0313C11.2177 19.4793 10.6708 19.495 10.1133 19.0782C9.48609 18.3004 8.85327 17.527 8.21484 16.7579C7.93387 16.3065 7.93387 15.8534 8.21484 15.3985C8.74607 14.9297 9.27735 14.461 9.80859 13.9922C9.61785 13.0645 9.87567 12.2911 10.582 11.6719C11.9379 10.576 13.2894 9.47443 14.6367 8.36725C14.9634 8.82118 14.979 9.28993 14.6836 9.7735C14.1193 10.291 13.5412 10.791 12.9492 11.2735C12.8554 11.6952 13.0195 11.8749 13.4414 11.8126C14.8877 10.6549 16.3252 9.49079 17.7539 8.32037Z" fill="white"/>
<path opacity="0.917" fill-rule="evenodd" clip-rule="evenodd" d="M7.30063 6.82021C7.70764 6.79743 7.8717 6.98493 7.79281 7.38271C7.76938 7.46863 7.71467 7.52334 7.62875 7.54677C6.99088 7.63504 6.35028 7.68191 5.70688 7.6874C5.43556 7.41309 5.46683 7.17871 5.80063 6.98427C6.30688 6.9209 6.80689 6.86619 7.30063 6.82021Z" fill="white"/>
<path opacity="0.915" fill-rule="evenodd" clip-rule="evenodd" d="M9.08186 6.86719C9.58731 6.92044 10.0873 7.00636 10.5819 7.125C10.8318 7.34377 10.8318 7.56248 10.5819 7.78125C10.0309 7.76733 9.48409 7.70484 8.94123 7.59375C8.66706 7.28498 8.71393 7.04278 9.08186 6.86719Z" fill="white"/>
<path opacity="0.915" fill-rule="evenodd" clip-rule="evenodd" d="M4.16021 7.28907C4.44287 7.26601 4.61475 7.39102 4.67583 7.66407C4.66022 7.78173 4.61335 7.88331 4.53521 7.96876C3.78428 8.1826 3.04208 8.42481 2.30865 8.69532C1.9252 8.57588 1.83926 8.34934 2.05083 8.01563C2.74432 7.72984 3.44744 7.48763 4.16021 7.28907Z" fill="white"/>
<path opacity="0.914" fill-rule="evenodd" clip-rule="evenodd" d="M5.42563 10.5702C5.66305 10.557 5.89743 10.5726 6.12875 10.6171C6.31443 10.8263 6.31443 11.0373 6.12875 11.2499C5.60357 11.3649 5.07233 11.4118 4.535 11.3905C4.32518 11.2189 4.29393 11.0158 4.44125 10.7811C4.50375 10.7499 4.56626 10.7186 4.62875 10.6874C4.90288 10.6598 5.16847 10.6207 5.42563 10.5702Z" fill="white"/>
<path opacity="0.911" fill-rule="evenodd" clip-rule="evenodd" d="M7.76949 10.5703C8.35556 10.6016 8.93367 10.6875 9.50386 10.8281C9.67786 10.9459 9.73252 11.11 9.66792 11.3203C9.60858 11.4673 9.49922 11.5454 9.3398 11.5547C8.80355 11.4513 8.26449 11.3654 7.72261 11.2969C7.46639 11.036 7.48205 10.7938 7.76949 10.5703Z" fill="white"/>
<path opacity="0.907" fill-rule="evenodd" clip-rule="evenodd" d="M2.28508 11.1797C2.81058 11.1712 2.9512 11.3978 2.70695 11.8594C2.18604 12.0252 1.67042 12.2049 1.16008 12.3984C0.864975 12.3241 0.747788 12.1366 0.808514 11.8359C0.863203 11.7812 0.917888 11.7266 0.972577 11.6719C1.41289 11.5018 1.85039 11.3378 2.28508 11.1797Z" fill="white"/>
</g>
<defs>
<clipPath id="clip0_11_2195">
<rect width="24" height="24" fill="white" transform="translate(0.0585938)"/>
</clipPath>
</defs>
</svg>
