<svg width="30" height="29" viewBox="0 0 30 29" fill="none" xmlns="http://www.w3.org/2000/svg">
<g clip-path="url(#clip0_11_2138)">
<path opacity="0.944" fill-rule="evenodd" clip-rule="evenodd" d="M14.3036 0.934611C14.4558 0.925316 14.6069 0.934758 14.7568 0.962931C14.8795 1.01013 14.9645 1.09509 15.0116 1.21781C15.0305 1.8031 15.0494 2.38839 15.0683 2.97367C15.212 3.26054 15.4291 3.3455 15.7197 3.22856C16.0132 3.0156 16.2964 2.78904 16.5693 2.54887C17.0455 2.29821 17.3476 2.43036 17.4755 2.94535C17.4128 3.17879 17.2806 3.36759 17.079 3.51176C16.456 3.98376 15.8329 4.45577 15.2099 4.92778C15.1555 5.00817 15.1083 5.09313 15.0683 5.18266C15.0305 7.5427 15.0305 9.90269 15.0683 12.2627C15.2834 12.6493 15.5571 12.6964 15.8896 12.4043C17.5182 10.7946 19.1324 9.16144 20.7323 7.50492C20.7551 7.42721 20.7834 7.35171 20.8173 7.27836C20.6856 6.4134 20.5723 5.54492 20.4775 4.67289C20.493 4.19225 20.7385 4.01289 21.2138 4.13481C21.3449 4.19764 21.4299 4.30148 21.4687 4.44633C21.5253 4.86169 21.582 5.27706 21.6386 5.69242C21.7247 5.89174 21.8757 6.00502 22.0917 6.03227C22.604 5.69038 23.0666 5.28445 23.4794 4.81449C23.817 4.65204 24.0719 4.737 24.2441 5.06938C24.2868 5.22816 24.268 5.3792 24.1874 5.5225C23.8305 5.93615 23.4529 6.33263 23.0546 6.71196C22.9377 7.00252 23.0226 7.21962 23.3095 7.36332C23.7248 7.41996 24.1402 7.4766 24.5556 7.53324C24.8725 7.66658 24.9763 7.9026 24.8671 8.24125C24.8199 8.36399 24.735 8.44895 24.6122 8.49613C23.6435 8.45292 22.6806 8.3491 21.7236 8.18461C21.6502 8.21848 21.5747 8.2468 21.497 8.26957C19.8812 9.90433 18.248 11.5186 16.5976 13.1123C16.3248 13.3803 16.3343 13.6352 16.6259 13.877C19.0189 13.9707 21.4167 13.9897 23.8193 13.9336C23.9088 13.8936 23.9938 13.8464 24.0741 13.792C24.6159 13.0394 25.1917 12.3125 25.8017 11.6114C26.2476 11.4453 26.512 11.5964 26.5947 12.0645C26.5715 12.196 26.5242 12.3186 26.4531 12.4327C26.1635 12.769 25.9086 13.1277 25.6884 13.5088C25.7282 13.7092 25.8415 13.8508 26.0282 13.9336C26.6135 13.9525 27.1988 13.9714 27.7841 13.9903C27.9871 14.0845 28.0815 14.245 28.0673 14.4717C28.0815 14.6985 27.9871 14.8589 27.7841 14.9532C27.1988 14.972 26.6135 14.9909 26.0282 15.0098C25.7414 15.1535 25.6564 15.3706 25.7734 15.6612C25.9863 15.9547 26.2129 16.2379 26.4531 16.5108C26.7037 16.987 26.5715 17.2891 26.0566 17.417C25.8232 17.3543 25.6343 17.2221 25.4902 17.0205C25.0182 16.3975 24.5461 15.7745 24.0741 15.1514C23.9938 15.097 23.9088 15.0499 23.8193 15.0098C21.4167 14.9538 19.0189 14.9727 16.6259 15.0664C16.352 15.2836 16.3331 15.5196 16.5693 15.7745C18.1592 17.3523 19.7452 18.9476 21.3271 20.5606C21.4448 20.6535 21.577 20.7195 21.7236 20.7588C22.6806 20.5943 23.6435 20.4905 24.6122 20.4473C24.8759 20.6114 24.9609 20.8474 24.8671 21.1553C24.8043 21.2864 24.7004 21.3714 24.5556 21.4102C24.1402 21.4668 23.7248 21.5235 23.3095 21.5801C22.9401 21.8003 22.893 22.074 23.1679 22.4014C23.5077 22.7413 23.8476 23.0811 24.1874 23.4209C24.3585 23.8529 24.2169 24.1172 23.7626 24.2139C23.6607 24.2095 23.5663 24.1812 23.4794 24.1289C23.0658 23.772 22.6693 23.3944 22.29 22.9961C21.9994 22.8792 21.7823 22.9641 21.6386 23.251C21.582 23.6664 21.5253 24.0818 21.4687 24.4971C21.3353 24.814 21.0993 24.9178 20.7607 24.8086C20.5406 24.6989 20.4461 24.5196 20.4775 24.2705C20.5723 23.3985 20.6856 22.53 20.8173 21.6651C20.7834 21.5917 20.7551 21.5162 20.7323 21.4385C19.1231 19.7643 17.49 18.1218 15.8329 16.5108C15.5136 16.2578 15.2587 16.3144 15.0683 16.6807C15.0305 19.0408 15.0305 21.4007 15.0683 23.7608C15.1083 23.8503 15.1555 23.9353 15.2099 24.0157C15.9625 24.5574 16.6895 25.1332 17.3906 25.7432C17.5566 26.1891 17.4056 26.4535 16.9374 26.5362C16.806 26.513 16.6833 26.4658 16.5693 26.3946C16.2329 26.105 15.8742 25.8501 15.4931 25.6299C15.2928 25.6697 15.1512 25.783 15.0683 25.9698C15.0494 26.555 15.0305 27.1404 15.0116 27.7256C14.9174 27.9286 14.7569 28.023 14.5302 28.0088C14.3035 28.023 14.143 27.9286 14.0488 27.7256C14.0299 27.1404 14.011 26.555 13.9921 25.9698C13.8484 25.6829 13.6313 25.5979 13.3407 25.7149C13.0472 25.9279 12.764 26.1544 12.4911 26.3946C12.0149 26.6453 11.7128 26.5131 11.5849 25.9981C11.6476 25.7647 11.7798 25.5758 11.9814 25.4317C12.6044 24.9597 13.2275 24.4877 13.8505 24.0157C13.9049 23.9353 13.9521 23.8503 13.9921 23.7608C14.0481 21.3583 14.0292 18.9604 13.9355 16.5674C13.6937 16.2758 13.4388 16.2663 13.1708 16.5391C11.5832 18.1834 9.96893 19.8166 8.32805 21.4385C8.30528 21.5162 8.27696 21.5917 8.24309 21.6651C8.40758 22.6221 8.5114 23.585 8.55462 24.5538C8.39053 24.8174 8.15456 24.9024 7.84661 24.8086C7.71549 24.7458 7.63052 24.6419 7.59173 24.4971C7.53508 24.0818 7.47844 23.6664 7.4218 23.251C7.33571 23.0517 7.18471 22.9384 6.96868 22.9112C6.45642 23.2531 5.99384 23.659 5.58098 24.1289C5.149 24.3 4.88468 24.1584 4.78801 23.7041C4.79238 23.6022 4.8207 23.5078 4.87298 23.4209C5.20975 23.0842 5.5496 22.7443 5.89251 22.4014C6.16744 22.074 6.12026 21.8003 5.75091 21.5801C5.33554 21.5235 4.92017 21.4668 4.50481 21.4102C4.18791 21.2769 4.08407 21.0408 4.19329 20.7022C4.30298 20.4821 4.48235 20.3877 4.73137 20.419C5.6034 20.5138 6.47188 20.6271 7.33684 20.7588C7.41019 20.725 7.48569 20.6966 7.56341 20.6739C9.17925 19.0391 10.8124 17.4249 12.4628 15.8311C12.7549 15.4986 12.7077 15.2249 12.3212 15.0098C9.96117 14.972 7.60118 14.972 5.24114 15.0098C5.15161 15.0499 5.06665 15.097 4.98626 15.1514C4.44451 15.904 3.86866 16.631 3.25872 17.3321C2.81279 17.4981 2.54847 17.3471 2.46575 16.8789C2.48894 16.7475 2.53614 16.6248 2.60735 16.5108C2.89689 16.1745 3.15177 15.8157 3.372 15.4346C3.33216 15.2343 3.21888 15.0927 3.03216 15.0098C2.44687 14.9909 1.86158 14.972 1.2763 14.9532C1.07328 14.8589 0.978887 14.6985 0.993093 14.4717C0.978887 14.245 1.07328 14.0845 1.2763 13.9903C1.86158 13.9714 2.44687 13.9525 3.03216 13.9336C3.31902 13.7899 3.40398 13.5728 3.28704 13.2823C3.07409 12.9887 2.84752 12.7055 2.60735 12.4327C2.35669 11.9564 2.48885 11.6544 3.00383 11.5264C3.23727 11.5892 3.42607 11.7213 3.57024 11.9229C4.04224 12.5459 4.51425 13.169 4.98626 13.792C5.06665 13.8464 5.15161 13.8936 5.24114 13.9336C7.60118 13.9714 9.96117 13.9714 12.3212 13.9336C12.7077 13.7186 12.7549 13.4448 12.4628 13.1123C10.8531 11.4838 9.21992 9.8695 7.56341 8.26957C7.48569 8.2468 7.41019 8.21848 7.33684 8.18461C6.47188 8.31636 5.6034 8.42964 4.73137 8.52445C4.25073 8.50888 4.07137 8.2634 4.19329 7.78813C4.25612 7.657 4.35996 7.57204 4.50481 7.53324C4.92017 7.4766 5.33554 7.41996 5.75091 7.36332C6.15634 7.10923 6.18466 6.81657 5.83587 6.48539C5.5149 6.16441 5.19394 5.84348 4.87298 5.5225C4.70963 4.98722 4.90787 4.73234 5.4677 4.75785C5.54322 4.79562 5.61875 4.83337 5.69426 4.87113C5.99452 5.22809 6.3155 5.56793 6.65716 5.89067C6.98561 6.11298 7.2405 6.04694 7.4218 5.69242C7.47844 5.27706 7.53508 4.86169 7.59173 4.44633C7.72506 4.12943 7.96108 4.02559 8.29973 4.13481C8.42247 4.182 8.50743 4.26697 8.55462 4.38969C8.5114 5.35844 8.40758 6.3213 8.24309 7.27836C8.27696 7.35171 8.30528 7.42721 8.32805 7.50492C9.97142 9.13884 11.6045 10.7814 13.2275 12.4327C13.4823 12.6688 13.7183 12.6499 13.9355 12.376C14.0292 9.98301 14.0481 7.58518 13.9921 5.18266C13.9521 5.09313 13.9049 5.00817 13.8505 4.92778C13.0979 4.38602 12.3709 3.81018 11.6698 3.20024C11.4972 2.75274 11.6482 2.48841 12.123 2.40727C12.2544 2.43046 12.3771 2.47766 12.4911 2.54887C12.8275 2.83841 13.1862 3.09329 13.5673 3.31352C13.7676 3.27368 13.9092 3.1604 13.9921 2.97367C14.011 2.38839 14.0299 1.8031 14.0488 1.21781C14.1068 1.09394 14.1918 0.999543 14.3036 0.934611Z" fill="white"/>
</g>
<defs>
<clipPath id="clip0_11_2138">
<rect width="29" height="29" fill="white" transform="translate(0.0585938)"/>
</clipPath>
</defs>
</svg>
