<svg width="22" height="21" viewBox="0 0 22 21" fill="none" xmlns="http://www.w3.org/2000/svg">
<g clip-path="url(#clip0_11_2155)">
<path opacity="0.995" fill-rule="evenodd" clip-rule="evenodd" d="M0.94043 -0.0205078C7.33887 -0.0205078 13.7373 -0.0205078 20.1357 -0.0205078C20.323 0.0596326 20.5007 0.162172 20.6689 0.287109C20.8295 0.465261 20.9526 0.663502 21.0381 0.881836C21.0381 6.87012 21.0381 12.8584 21.0381 18.8467C20.8265 19.4131 20.4164 19.714 19.8076 19.749C19.8739 20.3559 19.6278 20.766 19.0693 20.9795C18.4678 20.9795 17.8662 20.9795 17.2646 20.9795C16.7062 20.766 16.4601 20.3559 16.5264 19.749C12.5342 19.749 8.54198 19.749 4.5498 19.749C4.61604 20.3559 4.36995 20.766 3.81152 20.9795C3.20996 20.9795 2.6084 20.9795 2.00684 20.9795C1.4484 20.766 1.20231 20.3559 1.26855 19.749C0.659793 19.714 0.249636 19.4131 0.0380859 18.8467C0.0380859 12.8584 0.0380859 6.87012 0.0380859 0.881836C0.118226 0.6946 0.220765 0.516867 0.345703 0.348633C0.523854 0.188053 0.722095 0.0650065 0.94043 -0.0205078ZM1.26855 0.799805C7.44826 0.792967 13.628 0.799805 19.8076 0.820312C19.9559 0.845476 20.0721 0.920674 20.1562 1.0459C20.2065 1.23397 20.227 1.42537 20.2178 1.62012C13.7647 1.62012 7.31151 1.62012 0.858398 1.62012C0.849162 1.42537 0.86967 1.23397 0.919922 1.0459C1.01057 0.920075 1.12678 0.838044 1.26855 0.799805ZM0.858398 2.44043C2.49902 2.44043 4.13965 2.44043 5.78027 2.44043C5.7895 2.63517 5.76899 2.82658 5.71875 3.01465C5.63463 3.13987 5.51839 3.21507 5.37012 3.24023C3.86627 3.26074 2.36237 3.26758 0.858398 3.26074C0.858398 2.9873 0.858398 2.71387 0.858398 2.44043ZM6.60059 2.44043C11.1397 2.44043 15.6787 2.44043 20.2178 2.44043C20.2246 7.79982 20.2178 13.1592 20.1973 18.5186C20.1631 18.7441 20.0332 18.874 19.8076 18.9082C13.6279 18.9356 7.44826 18.9356 1.26855 18.9082C1.04297 18.874 0.913085 18.7441 0.878906 18.5186C0.858398 13.7061 0.851561 8.89358 0.858398 4.08105C2.47174 4.08789 4.08502 4.08105 5.69824 4.06055C6.42832 3.77003 6.72913 3.22999 6.60059 2.44043ZM2.08887 19.749C2.63574 19.749 3.18262 19.749 3.72949 19.749C3.74715 19.8869 3.70613 20.0031 3.60645 20.0977C3.37837 20.1436 3.14595 20.1641 2.90918 20.1592C2.7041 20.1523 2.49902 20.1455 2.29395 20.1387C2.13439 20.0589 2.06603 19.929 2.08887 19.749ZM17.3467 19.749C17.8935 19.749 18.4404 19.749 18.9873 19.749C19.0049 19.8869 18.9639 20.0031 18.8643 20.0977C18.6362 20.1436 18.4038 20.1641 18.167 20.1592C17.9619 20.1523 17.7568 20.1455 17.5518 20.1387C17.3922 20.0589 17.3238 19.929 17.3467 19.749Z" fill="white"/>
<path opacity="0.903" fill-rule="evenodd" clip-rule="evenodd" d="M10.374 6.50109C10.8246 6.46635 11.0092 6.67143 10.9277 7.11632C10.808 7.34293 10.6234 7.41812 10.374 7.34191C10.1439 7.2075 10.0688 7.00927 10.1484 6.74718C10.2042 6.6437 10.2794 6.56167 10.374 6.50109Z" fill="white"/>
<path opacity="0.95" fill-rule="evenodd" clip-rule="evenodd" d="M9.22535 7.48539C9.36649 7.47722 9.50319 7.49773 9.63551 7.54691C9.92984 7.90264 10.2306 8.25127 10.5379 8.59281C10.8451 8.25127 11.1459 7.90264 11.4402 7.54691C11.9883 7.42522 12.1866 7.63714 12.0349 8.18265C11.6697 8.59888 11.3142 9.02273 10.9685 9.45414C10.948 9.72722 10.9412 10.0007 10.948 10.2744C11.2218 10.2813 11.4952 10.2744 11.7683 10.2539C12.2195 9.8848 12.6707 9.51566 13.1218 9.14652C13.6294 9.07974 13.8139 9.29167 13.6755 9.78226C13.3198 10.0766 12.9712 10.3774 12.6296 10.6846C12.9712 10.9919 13.3198 11.2926 13.6755 11.5869C13.8219 11.9641 13.6989 12.1966 13.3064 12.2842C13.2172 12.2532 13.1284 12.2191 13.0398 12.1817C12.6236 11.8164 12.1997 11.461 11.7683 11.1153C11.4952 11.0948 11.2218 11.088 10.948 11.0948C10.9412 11.3685 10.948 11.642 10.9685 11.9151C11.3377 12.3662 11.7068 12.8174 12.0759 13.2686C12.1427 13.7761 11.9308 13.9607 11.4402 13.8223C11.1459 13.4666 10.8451 13.1179 10.5379 12.7764C10.2306 13.1179 9.92984 13.4666 9.63551 13.8223C9.08737 13.944 8.8891 13.7321 9.04078 13.1866C9.40602 12.7703 9.76147 12.3465 10.1072 11.9151C10.1277 11.642 10.1345 11.3685 10.1277 11.0948C9.85392 11.088 9.58046 11.0948 9.30738 11.1153C8.87598 11.461 8.45212 11.8164 8.0359 12.1817C7.804 12.3104 7.59207 12.2763 7.40016 12.0791C7.32169 11.9163 7.32169 11.7522 7.40016 11.5869C7.75588 11.2926 8.10452 10.9919 8.44605 10.6846C8.10452 10.3774 7.75588 10.0766 7.40016 9.78226C7.27846 9.23413 7.49039 9.03586 8.0359 9.18753C8.45212 9.55278 8.87598 9.90822 9.30738 10.2539C9.58046 10.2744 9.85392 10.2813 10.1277 10.2744C10.1345 10.0007 10.1277 9.72722 10.1072 9.45414C9.73805 9.00296 9.36891 8.55179 8.99976 8.10062C8.9213 7.83279 8.99648 7.62771 9.22535 7.48539Z" fill="white"/>
<path opacity="0.903" fill-rule="evenodd" clip-rule="evenodd" d="M6.60055 10.2745C7.05131 10.2127 7.24958 10.404 7.19527 10.8487C7.06087 11.0788 6.86264 11.154 6.60055 11.0743C6.37394 10.9546 6.29875 10.77 6.37496 10.5206C6.43074 10.4171 6.50592 10.3351 6.60055 10.2745Z" fill="white"/>
<path opacity="0.903" fill-rule="evenodd" clip-rule="evenodd" d="M14.1064 10.2745C14.5572 10.2127 14.7554 10.404 14.7011 10.8487C14.5667 11.0788 14.3685 11.154 14.1064 11.0743C13.8798 10.9546 13.8046 10.77 13.8808 10.5206C13.9366 10.4171 14.0118 10.3351 14.1064 10.2745Z" fill="white"/>
<path opacity="0.903" fill-rule="evenodd" clip-rule="evenodd" d="M10.374 14.0069C10.8246 13.9722 11.0092 14.1773 10.9277 14.6222C10.808 14.8488 10.6234 14.924 10.374 14.8478C10.1439 14.7134 10.0688 14.5151 10.1484 14.253C10.2042 14.1496 10.2794 14.0675 10.374 14.0069Z" fill="white"/>
<path opacity="0.902" fill-rule="evenodd" clip-rule="evenodd" d="M14.8445 17.2882C15.2931 17.2241 15.4913 17.4155 15.4392 17.8624C15.3088 18.0976 15.1106 18.1728 14.8445 18.088C14.5186 17.8215 14.5186 17.5549 14.8445 17.2882Z" fill="white"/>
<path opacity="0.978" fill-rule="evenodd" clip-rule="evenodd" d="M16.034 17.288C17.0868 17.2811 18.1395 17.288 19.1922 17.3085C19.388 17.4584 19.4496 17.6566 19.3768 17.9032C19.3289 17.9784 19.2674 18.0399 19.1922 18.0878C18.1394 18.1151 17.0867 18.1151 16.034 18.0878C15.8381 17.9379 15.7766 17.7396 15.8494 17.493C15.9054 17.4167 15.967 17.3483 16.034 17.288Z" fill="white"/>
</g>
<defs>
<clipPath id="clip0_11_2155">
<rect width="21" height="21" fill="white" transform="translate(0.0585938)"/>
</clipPath>
</defs>
</svg>
