<svg width="37" height="37" viewBox="0 0 37 37" fill="none" xmlns="http://www.w3.org/2000/svg">
<g clip-path="url(#clip0_11_2141)">
<path opacity="0.987" fill-rule="evenodd" clip-rule="evenodd" d="M16.4766 0.230469C17.5312 0.230469 18.5859 0.230469 19.6406 0.230469C25.9437 0.996024 30.6898 4.11322 33.8789 9.58203C35.0528 11.7948 35.7676 14.1386 36.0234 16.6133C36.0234 17.668 36.0234 18.7227 36.0234 19.7773C35.1457 26.8302 31.4894 31.8575 25.0547 34.8594C23.2839 35.5833 21.4558 36.0403 19.5703 36.2305C18.5156 36.2305 17.4609 36.2305 16.4062 36.2305C9.39096 35.3199 4.38707 31.6636 1.39453 25.2617C0.68188 23.5126 0.224849 21.7079 0.0234375 19.8477C0.0234375 18.7696 0.0234375 17.6914 0.0234375 16.6133C0.712991 10.6889 3.54893 6.10686 8.53125 2.86719C10.9867 1.38854 13.6351 0.509638 16.4766 0.230469ZM11.8359 7.05078C13.2328 6.93712 14.5219 7.25353 15.7031 8C17.27 9.24102 19.0629 9.83867 21.082 9.79297C21.705 9.76351 22.3261 9.71661 22.9453 9.65234C22.9453 11.7851 22.9453 13.918 22.9453 16.0508C20.896 15.6834 18.9272 15.9295 17.0391 16.7891C16.4067 17.246 15.7504 17.6679 15.0703 18.0547C12.1492 19.1672 9.7234 18.4993 7.79297 16.0508C6.41206 13.6668 6.55268 11.3699 8.21484 9.16016C9.19134 8.04549 10.3983 7.34237 11.8359 7.05078ZM26.3906 8.87891C26.6718 8.84895 26.8476 8.96616 26.918 9.23047C26.9649 11.6445 26.9649 14.0586 26.918 16.4727C26.8467 16.6376 26.7296 16.7548 26.5664 16.8242C25.6774 16.5522 24.7751 16.3412 23.8594 16.1914C23.8594 13.9648 23.8594 11.7383 23.8594 9.51172C24.7271 9.36512 25.5709 9.15418 26.3906 8.87891ZM12.3281 10.2148C14.0979 10.2507 15.0823 11.1414 15.2812 12.8867C15.1209 14.5002 14.2303 15.3908 12.6094 15.5586C11.0016 15.3806 10.0875 14.4899 9.86719 12.8867C10.0591 11.4061 10.8793 10.5156 12.3281 10.2148ZM9.09375 18.5117C10.5607 19.3723 12.131 19.6535 13.8047 19.3555C13.8748 19.8454 13.8982 20.3376 13.875 20.832C13.4699 20.8074 13.0715 20.8425 12.6797 20.9375C12.5406 21.1131 12.5055 21.3123 12.5742 21.5352C12.6377 21.6196 12.7197 21.6782 12.8203 21.7109C13.1711 21.746 13.5227 21.7578 13.875 21.7461C13.875 22.3555 13.875 22.9648 13.875 23.5742C13.4993 23.5625 13.1243 23.5743 12.75 23.6094C12.5341 23.79 12.4872 24.0127 12.6094 24.2773C12.6463 24.326 12.6932 24.3612 12.75 24.3828C13.1243 24.4179 13.4993 24.4296 13.875 24.418C13.6933 25.584 13.0371 26.334 11.9062 26.668C11.8244 27.135 11.8127 27.6037 11.8711 28.0742C11.9817 28.3956 12.2044 28.5948 12.5391 28.6719C13.199 28.7319 13.8552 28.7084 14.5078 28.6016C14.9155 28.4446 15.2436 28.1869 15.4922 27.8281C16.9181 26.839 18.1838 27.0266 19.2891 28.3906C19.948 28.8119 20.6042 28.8119 21.2578 28.3906C22.7103 26.7502 24.1634 26.7502 25.6172 28.3906C25.7578 28.4609 25.8984 28.5312 26.0391 28.6016C27.0436 28.6891 28.0515 28.7359 29.0625 28.7422C29.2593 28.977 29.2359 29.1879 28.9922 29.375C28.0547 29.4219 27.1172 29.4219 26.1797 29.375C25.8537 29.3132 25.5491 29.1961 25.2656 29.0234C24.096 27.5998 22.9007 27.5763 21.6797 28.9531C20.7422 29.5625 19.8047 29.5625 18.8672 28.9531C18.5836 28.646 18.279 28.3647 17.9531 28.1094C17.3544 27.8566 16.7685 27.88 16.1953 28.1797C15.1602 29.3474 13.8712 29.7458 12.3281 29.375C11.7374 29.2296 11.3507 28.8664 11.168 28.2852C11.1561 27.7446 11.1209 27.2055 11.0625 26.668C10.1486 26.4691 9.52751 25.93 9.19922 25.0508C9.09586 22.8746 9.0607 20.6949 9.09375 18.5117Z" fill="#605D5C"/>
<path opacity="0.909" fill-rule="evenodd" clip-rule="evenodd" d="M12.3986 9.23047C14.48 9.3083 15.7338 10.363 16.1604 12.3945C16.2603 14.5521 15.2643 15.8763 13.1721 16.3672C10.9338 16.5446 9.56273 15.5485 9.0588 13.3789C8.89645 11.6289 9.58783 10.3515 11.133 9.54688C11.5534 9.39493 11.9753 9.28946 12.3986 9.23047ZM12.3283 10.2148C10.8795 10.5156 10.0593 11.4061 9.86739 12.8867C10.0878 14.4899 11.0018 15.3806 12.6096 15.5586C14.2305 15.3908 15.1211 14.5002 15.2815 12.8867C15.0825 11.1414 14.0981 10.2507 12.3283 10.2148Z" fill="white"/>
</g>
<defs>
<clipPath id="clip0_11_2141">
<rect width="36" height="36" fill="white" transform="translate(0.0585938 0.265625)"/>
</clipPath>
</defs>
</svg>
