<svg width="28" height="27" viewBox="0 0 28 27" fill="none" xmlns="http://www.w3.org/2000/svg">
<path opacity="0.928" fill-rule="evenodd" clip-rule="evenodd" d="M13.4266 0.659253C13.5808 0.657133 13.7214 0.701082 13.8485 0.791089C16.7813 3.49825 18.8291 6.77655 19.992 10.626C21.2245 14.8749 21.4706 19.1816 20.7303 23.546C20.6827 23.6093 20.6212 23.6533 20.5457 23.6778C20.0187 23.7042 19.4913 23.7129 18.9637 23.7042C18.9725 24.4954 18.9637 25.2864 18.9373 26.0772C18.8733 26.1589 18.7942 26.2204 18.7 26.2618C15.2547 26.297 11.8094 26.297 8.36408 26.2618C8.26989 26.2204 8.19079 26.1589 8.12677 26.0772C8.1004 25.2864 8.0916 24.4954 8.1004 23.7042C7.53245 23.7281 6.96994 23.7017 6.4129 23.6251C6.33359 23.5464 6.28966 23.4498 6.28107 23.335C5.48362 18.3959 5.94067 13.5794 7.65216 8.88581C8.81696 5.87811 10.566 3.26776 12.8992 1.05476C13.0698 0.909841 13.2456 0.778005 13.4266 0.659253ZM13.4793 1.60847C14.8053 2.73258 15.9215 4.03337 16.8279 5.51082C19.2218 9.51304 20.4083 13.8549 20.3875 18.5362C20.3465 20.0002 20.2411 21.4592 20.0711 22.9132C15.7117 22.9132 11.3524 22.9132 6.99298 22.9132C6.74766 20.8989 6.66856 18.8774 6.75568 16.8487C7.02768 12.0237 8.59215 7.68184 11.449 3.82332C12.0814 3.0417 12.7581 2.30342 13.4793 1.60847ZM8.83869 23.7042C11.9676 23.7042 15.0965 23.7042 18.2254 23.7042C18.2254 24.3018 18.2254 24.8995 18.2254 25.4971C15.0965 25.4971 11.9676 25.4971 8.83869 25.4971C8.83869 24.8995 8.83869 24.3018 8.83869 23.7042Z" fill="white"/>
<path opacity="0.875" fill-rule="evenodd" clip-rule="evenodd" d="M13.2158 5.03623C13.5728 4.94064 13.8013 5.06369 13.9014 5.40537C13.87 5.6741 13.7206 5.79718 13.4531 5.77451C13.1729 5.8062 13.0236 5.68317 13.0049 5.40537C13.0358 5.25513 13.1061 5.13209 13.2158 5.03623Z" fill="white"/>
<path opacity="0.858" fill-rule="evenodd" clip-rule="evenodd" d="M11.9504 7.51474C12.501 7.50077 12.6592 7.73807 12.425 8.22666C11.9198 8.42367 11.6825 8.25666 11.7131 7.72568C11.7867 7.64289 11.8658 7.57254 11.9504 7.51474Z" fill="white"/>
<path opacity="0.846" fill-rule="evenodd" clip-rule="evenodd" d="M14.5869 7.51467C15.1664 7.49195 15.3246 7.72925 15.0615 8.22659C14.5858 8.43484 14.3485 8.28544 14.3496 7.77835C14.4037 7.66302 14.4828 7.57511 14.5869 7.51467Z" fill="white"/>
<path opacity="0.85" fill-rule="evenodd" clip-rule="evenodd" d="M10.7901 10.1514C11.2203 10.1157 11.4049 10.3091 11.3438 10.7315C11.099 10.9927 10.8353 11.0103 10.5528 10.7842C10.4509 10.5008 10.53 10.2898 10.7901 10.1514Z" fill="white"/>
<path opacity="0.858" fill-rule="evenodd" clip-rule="evenodd" d="M13.3211 10.1513C13.87 10.1335 14.0282 10.3708 13.7957 10.8632C13.5459 10.988 13.3174 10.9616 13.1102 10.7841C12.9936 10.5039 13.0639 10.2929 13.3211 10.1513Z" fill="white"/>
<path opacity="0.85" fill-rule="evenodd" clip-rule="evenodd" d="M15.9578 10.1513C16.31 10.0916 16.5209 10.2323 16.5906 10.5731C16.4812 10.9091 16.2527 11.0234 15.9051 10.9159C15.6186 10.6396 15.6362 10.3848 15.9578 10.1513Z" fill="white"/>
<path opacity="0.842" fill-rule="evenodd" clip-rule="evenodd" d="M9.52433 12.6826C9.92849 12.6386 10.1131 12.8145 10.078 13.21C9.94963 13.4591 9.74745 13.5382 9.4716 13.4473C9.2104 13.3081 9.14886 13.1059 9.28702 12.8408C9.36133 12.7733 9.44043 12.7205 9.52433 12.6826Z" fill="white"/>
<path opacity="0.859" fill-rule="evenodd" clip-rule="evenodd" d="M12.0557 12.6827C12.5891 12.679 12.7473 12.9163 12.5303 13.3946C12.0085 13.605 11.7712 13.4381 11.8184 12.8936C11.892 12.8108 11.9711 12.7405 12.0557 12.6827Z" fill="white"/>
<path opacity="0.842" fill-rule="evenodd" clip-rule="evenodd" d="M14.6396 12.6826C15.0437 12.6386 15.2283 12.8145 15.1933 13.21C15.0649 13.4591 14.8627 13.5382 14.5868 13.4473C14.3256 13.3081 14.2641 13.1059 14.4023 12.8408C14.4766 12.7733 14.5557 12.7205 14.6396 12.6826Z" fill="white"/>
<path opacity="0.842" fill-rule="evenodd" clip-rule="evenodd" d="M17.2235 12.6826C17.5784 12.6234 17.7893 12.764 17.8564 13.1045C17.7473 13.4403 17.5187 13.5546 17.1708 13.4472C16.8809 13.1669 16.8985 12.912 17.2235 12.6826Z" fill="white"/>
</svg>
