<svg width="22" height="21" viewBox="0 0 22 21" fill="none" xmlns="http://www.w3.org/2000/svg">
<g clip-path="url(#clip0_11_2216)">
<path opacity="0.98" fill-rule="evenodd" clip-rule="evenodd" d="M4.50879 -0.0205078C8.52832 -0.0205078 12.5479 -0.0205078 16.5674 -0.0205078C17.5766 0.257486 18.185 0.913734 18.3926 1.94824C18.4199 6.76073 18.4199 11.5733 18.3926 16.3857C18.2317 17.3192 17.7053 17.9481 16.8135 18.2725C16.7793 19.0104 16.7588 19.7487 16.752 20.4873C16.703 20.7203 16.5731 20.8844 16.3623 20.9795C15.3233 20.9795 14.2842 20.9795 13.2451 20.9795C13.0819 20.905 12.9657 20.782 12.8965 20.6104C12.876 19.8585 12.8691 19.1066 12.876 18.3545C11.3174 18.3545 9.75879 18.3545 8.2002 18.3545C8.20705 19.0792 8.2002 19.8038 8.17969 20.5283C8.1141 20.7373 7.98421 20.8877 7.79004 20.9795C6.76465 20.9795 5.73926 20.9795 4.71387 20.9795C4.53812 20.8925 4.40822 20.7558 4.32422 20.5693C4.31737 19.8033 4.29686 19.0377 4.2627 18.2725C3.39734 17.9881 2.87097 17.4003 2.68359 16.5088C2.65625 11.6006 2.65625 6.6924 2.68359 1.78418C2.93495 0.815009 3.54335 0.213449 4.50879 -0.0205078ZM4.91895 1.20996C8.66507 1.20312 12.4111 1.20996 16.1572 1.23047C16.6692 1.29121 16.9905 1.57149 17.1211 2.07129C17.1485 6.80174 17.1485 11.5322 17.1211 16.2627C17.023 16.6752 16.7701 16.9418 16.3623 17.0625C12.4795 17.0899 8.59669 17.0899 4.71387 17.0625C4.22078 16.9109 3.95416 16.5759 3.91406 16.0576C3.88672 11.4502 3.88672 6.84276 3.91406 2.23535C3.98288 1.62653 4.31786 1.28474 4.91895 1.20996ZM5.5752 18.3545C6.02637 18.3545 6.47754 18.3545 6.92871 18.3545C6.92871 18.8193 6.92871 19.2842 6.92871 19.749C6.47754 19.749 6.02637 19.749 5.5752 19.749C5.5752 19.2842 5.5752 18.8193 5.5752 18.3545ZM14.1475 18.3545C14.5986 18.3545 15.0498 18.3545 15.501 18.3545C15.501 18.8193 15.501 19.2842 15.501 19.749C15.0498 19.749 14.5986 19.749 14.1475 19.749C14.1475 19.2842 14.1475 18.8193 14.1475 18.3545Z" fill="white"/>
<path opacity="0.958" fill-rule="evenodd" clip-rule="evenodd" d="M6.43653 6.8702C6.82208 6.83378 7.07498 6.99784 7.19532 7.36238C7.22268 8.5655 7.22268 9.76865 7.19532 10.9718C6.98746 11.433 6.65252 11.5492 6.19044 11.3204C6.08355 11.2409 6.00837 11.1384 5.96485 11.0128C5.9375 9.78231 5.9375 8.55184 5.96485 7.32137C6.0514 7.09127 6.20865 6.94091 6.43653 6.8702Z" fill="white"/>
</g>
<defs>
<clipPath id="clip0_11_2216">
<rect width="21" height="21" fill="white" transform="translate(0.0585938)"/>
</clipPath>
</defs>
</svg>
<svg width="22" height="21" viewBox="0 0 22 21" fill="none" xmlns="http://www.w3.org/2000/svg">
<g clip-path="url(#clip0_11_2216)">
<path opacity="0.98" fill-rule="evenodd" clip-rule="evenodd" d="M4.50879 -0.0205078C8.52832 -0.0205078 12.5479 -0.0205078 16.5674 -0.0205078C17.5766 0.257486 18.185 0.913734 18.3926 1.94824C18.4199 6.76073 18.4199 11.5733 18.3926 16.3857C18.2317 17.3192 17.7053 17.9481 16.8135 18.2725C16.7793 19.0104 16.7588 19.7487 16.752 20.4873C16.703 20.7203 16.5731 20.8844 16.3623 20.9795C15.3233 20.9795 14.2842 20.9795 13.2451 20.9795C13.0819 20.905 12.9657 20.782 12.8965 20.6104C12.876 19.8585 12.8691 19.1066 12.876 18.3545C11.3174 18.3545 9.75879 18.3545 8.2002 18.3545C8.20705 19.0792 8.2002 19.8038 8.17969 20.5283C8.1141 20.7373 7.98421 20.8877 7.79004 20.9795C6.76465 20.9795 5.73926 20.9795 4.71387 20.9795C4.53812 20.8925 4.40822 20.7558 4.32422 20.5693C4.31737 19.8033 4.29686 19.0377 4.2627 18.2725C3.39734 17.9881 2.87097 17.4003 2.68359 16.5088C2.65625 11.6006 2.65625 6.6924 2.68359 1.78418C2.93495 0.815009 3.54335 0.213449 4.50879 -0.0205078ZM4.91895 1.20996C8.66507 1.20312 12.4111 1.20996 16.1572 1.23047C16.6692 1.29121 16.9905 1.57149 17.1211 2.07129C17.1485 6.80174 17.1485 11.5322 17.1211 16.2627C17.023 16.6752 16.7701 16.9418 16.3623 17.0625C12.4795 17.0899 8.59669 17.0899 4.71387 17.0625C4.22078 16.9109 3.95416 16.5759 3.91406 16.0576C3.88672 11.4502 3.88672 6.84276 3.91406 2.23535C3.98288 1.62653 4.31786 1.28474 4.91895 1.20996ZM5.5752 18.3545C6.02637 18.3545 6.47754 18.3545 6.92871 18.3545C6.92871 18.8193 6.92871 19.2842 6.92871 19.749C6.47754 19.749 6.02637 19.749 5.5752 19.749C5.5752 19.2842 5.5752 18.8193 5.5752 18.3545ZM14.1475 18.3545C14.5986 18.3545 15.0498 18.3545 15.501 18.3545C15.501 18.8193 15.501 19.2842 15.501 19.749C15.0498 19.749 14.5986 19.749 14.1475 19.749C14.1475 19.2842 14.1475 18.8193 14.1475 18.3545Z" fill="white"/>
<path opacity="0.958" fill-rule="evenodd" clip-rule="evenodd" d="M6.43653 6.8702C6.82208 6.83378 7.07498 6.99784 7.19532 7.36238C7.22268 8.5655 7.22268 9.76865 7.19532 10.9718C6.98746 11.433 6.65252 11.5492 6.19044 11.3204C6.08355 11.2409 6.00837 11.1384 5.96485 11.0128C5.9375 9.78231 5.9375 8.55184 5.96485 7.32137C6.0514 7.09127 6.20865 6.94091 6.43653 6.8702Z" fill="white"/>
</g>
<defs>
<clipPath id="clip0_11_2216">
<rect width="21" height="21" fill="white" transform="translate(0.0585938)"/>
</clipPath>
</defs>
</svg>
