<svg width="27" height="26" viewBox="0 0 27 26" fill="none" xmlns="http://www.w3.org/2000/svg">
<g clip-path="url(#clip0_11_2120)">
<path opacity="0.966" fill-rule="evenodd" clip-rule="evenodd" d="M6.17773 -0.0253906C6.63477 -0.0253906 7.0918 -0.0253906 7.54883 -0.0253906C9.76959 0.443513 11.0984 1.79768 11.5352 4.03711C11.7618 5.98396 11.9903 7.93056 12.2207 9.87695C12.2026 10.2839 11.9994 10.5378 11.6113 10.6387C11.8088 12.4924 12.0119 14.3459 12.2207 16.1992C12.116 17.8098 11.3035 18.8763 9.7832 19.3984C9.06516 19.5877 8.33731 19.7147 7.59961 19.7793C6.1562 19.7308 5.13211 19.0537 4.52734 17.748C3.96894 16.0051 3.41035 14.2616 2.85156 12.5176C2.4651 12.6038 2.17733 12.4683 1.98828 12.1113C1.30868 10.0138 0.656985 7.91477 0.0332031 5.81445C0.0332031 5.35742 0.0332031 4.90039 0.0332031 4.44336C0.392352 2.53486 1.49261 1.25687 3.33398 0.609375C4.28927 0.399852 5.23716 0.188263 6.17773 -0.0253906ZM6.83789 1.49805C8.65561 1.65686 9.7051 2.63863 9.98633 4.44336C7.08311 4.18778 4.35786 4.7633 1.81055 6.16992C1.32637 4.56707 1.7834 3.306 3.18164 2.38672C3.42341 2.25534 3.67731 2.15377 3.94336 2.08203C4.91102 1.86312 5.87584 1.66846 6.83789 1.49805ZM7.65039 5.9668C8.49752 5.9573 9.34389 5.97426 10.1895 6.01758C10.2947 6.96511 10.3963 7.91299 10.4941 8.86133C7.84641 8.4761 5.40043 9.00082 3.15625 10.4355C2.84553 9.56267 2.54931 8.68243 2.26758 7.79492C2.62168 7.51593 3.01101 7.28741 3.43555 7.10938C4.78583 6.50376 6.19078 6.1229 7.65039 5.9668ZM7.95508 10.334C8.63316 10.3243 9.31028 10.3412 9.98633 10.3848C10.1915 12.3158 10.4115 14.2455 10.6465 16.1738C10.5538 17.0972 10.0629 17.6812 9.17383 17.9258C8.655 18.055 8.13027 18.1481 7.59961 18.2051C6.59373 18.1221 5.99279 17.5804 5.79688 16.5801C5.29084 14.9435 4.77457 13.31 4.24805 11.6797C5.07634 11.104 5.9904 10.7147 6.99023 10.5117C7.31889 10.4514 7.64054 10.3922 7.95508 10.334Z" fill="white"/>
<path opacity="0.965" fill-rule="evenodd" clip-rule="evenodd" d="M26.0332 10.6387C26.0332 11.0957 26.0332 11.5528 26.0332 12.0098C25.4094 14.1101 24.7577 16.2091 24.0781 18.3067C24.0041 18.4316 23.911 18.5416 23.7988 18.6368C23.5799 18.7081 23.3683 18.7842 23.1641 18.8653C22.612 20.6908 22.0195 22.502 21.3867 24.2989C20.8387 25.2027 20.0516 25.7613 19.0254 25.9746C18.653 25.9746 18.2806 25.9746 17.9082 25.9746C17.357 25.8456 16.7984 25.7187 16.2324 25.5938C14.7412 25.05 13.9457 23.9836 13.8457 22.3946C14.0636 20.5586 14.2582 18.7221 14.4297 16.8848C14.0815 16.7395 13.8869 16.4771 13.8457 16.0977C14.0849 14.0402 14.3304 11.9835 14.582 9.92777C15.1149 7.80369 16.4606 6.55955 18.6191 6.19535C19.2167 6.14553 19.8091 6.17935 20.3965 6.29691C21.3218 6.4718 22.2359 6.69189 23.1387 6.95707C24.7409 7.6871 25.7057 8.91428 26.0332 10.6387ZM18.7207 7.74418C19.0428 7.73575 19.3644 7.74418 19.6855 7.76957C20.5506 7.94776 21.4139 8.13392 22.2754 8.32816C24.0761 9.07723 24.7532 10.406 24.3066 12.3145C24.2897 12.3314 24.2728 12.3484 24.2559 12.3653C21.7049 10.9715 18.9796 10.3959 16.0801 10.6387C16.2914 9.05657 17.1716 8.09172 18.7207 7.74418ZM16.5371 12.1621C19.1196 12.0291 21.5233 12.6131 23.748 13.9141C23.7713 13.9351 23.7882 13.9605 23.7988 13.9903C23.4969 14.8622 23.226 15.7424 22.9863 16.6309C22.4575 16.341 21.9158 16.0617 21.3613 15.793C19.5048 15.0006 17.5836 14.772 15.5977 15.1075C15.655 14.1998 15.7481 13.2942 15.877 12.3907C15.8899 12.3233 15.9238 12.2725 15.9785 12.2383C16.1743 12.2293 16.3605 12.2039 16.5371 12.1621ZM16.5371 16.5293C18.3249 16.4219 20.0006 16.8028 21.5645 17.6719C21.66 17.7279 21.7446 17.7956 21.8184 17.875C21.2446 19.7147 20.6606 21.5513 20.0664 23.3848C19.64 24.1947 18.9714 24.5247 18.0605 24.375C17.5478 24.2759 17.0399 24.1574 16.5371 24.0196C15.835 23.6974 15.4626 23.1473 15.4199 22.3692C15.6549 20.4408 15.8749 18.5111 16.0801 16.5801C16.2432 16.5959 16.3956 16.5789 16.5371 16.5293Z" fill="white"/>
</g>
<defs>
<clipPath id="clip0_11_2120">
<rect width="26" height="26" fill="white" transform="translate(0.0585938)"/>
</clipPath>
</defs>
</svg>
