<svg width="26" height="25" viewBox="0 0 26 25" fill="none" xmlns="http://www.w3.org/2000/svg">
<g clip-path="url(#clip0_11_2127)">
<path opacity="0.935" fill-rule="evenodd" clip-rule="evenodd" d="M11.9971 -0.0244141C12.2575 -0.0244141 12.5179 -0.0244141 12.7783 -0.0244141C13.2495 0.145661 13.5669 0.471182 13.7305 0.952148C13.763 7.77183 13.763 14.5915 13.7305 21.4111C13.6078 21.5924 13.4369 21.6493 13.2178 21.582C13.0911 21.5167 13.0179 21.4108 12.9981 21.2646C12.9818 14.5589 12.9655 7.85317 12.9492 1.14746C12.7562 0.756641 12.4551 0.650845 12.0459 0.830078C11.901 0.932642 11.8115 1.07099 11.7774 1.24512C11.7448 8.73208 11.7448 16.2191 11.7774 23.7061C11.9279 24.1679 12.229 24.3062 12.6807 24.1211C12.8214 24.06 12.9109 23.9542 12.9492 23.8037C12.9566 23.4426 12.9892 23.0845 13.0469 22.7295C13.2748 22.4691 13.5026 22.4691 13.7305 22.7295C13.774 23.2045 13.7577 23.6765 13.6817 24.1455C13.4945 24.5526 13.1934 24.8293 12.7783 24.9756C12.5179 24.9756 12.2575 24.9756 11.9971 24.9756C11.4467 24.7748 11.113 24.3841 10.9961 23.8037C10.9635 16.2516 10.9635 8.69956 10.9961 1.14746C11.113 0.567021 11.4467 0.176394 11.9971 -0.0244141Z" fill="white"/>
<path opacity="0.925" fill-rule="evenodd" clip-rule="evenodd" d="M5.64945 3.29595C6.22396 3.22922 6.68783 3.42453 7.04105 3.88188C10.1732 7.46391 11.1172 11.5655 9.87308 16.1866C9.2265 18.1728 8.17669 19.9062 6.72367 21.3868C6.11307 21.787 5.55155 21.73 5.0391 21.2159C4.73715 20.7327 4.75343 20.2607 5.08792 19.7999C7.68748 17.1108 8.63148 13.9208 7.91996 10.2295C7.46971 8.25229 6.52572 6.55962 5.08792 5.15141C4.62822 4.33129 4.81539 3.7128 5.64945 3.29595ZM5.84476 4.0772C5.96629 4.06732 6.08026 4.09174 6.18656 4.15044C9.12357 7.24995 10.1734 10.9039 9.33597 15.1124C8.82362 17.2487 7.81449 19.1041 6.30863 20.6788C5.99896 20.97 5.76297 20.9212 5.60062 20.5323C5.64129 20.4509 5.68202 20.3695 5.72269 20.2881C8.39325 17.4857 9.40238 14.1654 8.75003 10.3272C8.30213 8.12871 7.293 6.24072 5.72269 4.66313C5.56537 4.42703 5.60604 4.23172 5.84476 4.0772Z" fill="white"/>
<path opacity="0.925" fill-rule="evenodd" clip-rule="evenodd" d="M3.40316 5.54198C3.77545 5.49066 4.11725 5.5639 4.42855 5.76171C6.66742 8.03495 7.57074 10.7612 7.13851 13.9404C6.79461 15.9874 5.89129 17.7371 4.42855 19.1894C3.98424 19.4627 3.52851 19.4789 3.06136 19.2383C2.55733 18.7775 2.46781 18.2486 2.79281 17.6514C5.04032 15.276 5.56927 12.5579 4.37972 9.49706C4.43919 9.16591 4.6345 9.04384 4.96566 9.13085C5.18485 9.41259 5.33949 9.72997 5.42953 10.083C6.26942 13.1523 5.60213 15.8379 3.42757 18.1396C3.32778 18.3998 3.4173 18.5626 3.69613 18.6279C3.78397 18.6242 3.86535 18.5997 3.94027 18.5547C6.1827 16.1714 6.92328 13.3801 6.16195 10.1807C5.73998 8.72548 4.9994 7.4641 3.94027 6.39647C3.64531 6.24457 3.44999 6.32596 3.35433 6.64061C3.58448 7.0014 3.85303 7.3351 4.15999 7.64159C4.39533 7.88856 4.38719 8.12455 4.13558 8.3496C4.00537 8.38217 3.87517 8.38217 3.74496 8.3496C3.51054 8.07113 3.25826 7.80258 2.98812 7.54393C2.44283 6.91483 2.46725 6.30448 3.06136 5.71288C3.17978 5.65365 3.29371 5.59672 3.40316 5.54198Z" fill="white"/>
<path opacity="0.933" fill-rule="evenodd" clip-rule="evenodd" d="M22.2996 6.17676C23.3541 6.22246 23.8423 6.77588 23.7644 7.83691C23.7563 8.03223 23.7482 8.22754 23.74 8.42285C23.6985 8.61875 23.5765 8.71641 23.3738 8.71582C23.2463 8.71309 23.1405 8.66426 23.0564 8.56934C23.0062 8.11489 22.9573 7.65918 22.9099 7.20215C22.8118 7.05273 22.6734 6.97139 22.4949 6.95801C20.7776 7.29653 19.0687 7.66274 17.3679 8.05664C17.2652 8.15635 17.2082 8.27842 17.197 8.42285C17.1645 8.91113 17.1645 9.39941 17.197 9.8877C17.3923 10.083 17.5877 10.2783 17.783 10.4736C17.9242 10.3488 18.0788 10.243 18.2468 10.1562C19.3686 9.92212 20.4916 9.69429 21.616 9.47266C22.2057 9.42749 22.5556 9.69604 22.6658 10.2783C22.7123 11.0466 22.6961 11.8116 22.617 12.5732C22.5677 12.6591 22.4945 12.7161 22.3972 12.7441C22.2025 12.7525 22.0072 12.7444 21.8113 12.7197C21.2798 12.7414 20.9217 13.0018 20.7371 13.501C21.433 14.3029 22.1573 15.0841 22.9099 15.8447C22.9742 13.8457 23.0067 11.8437 23.0076 9.83887C23.2175 9.59736 23.4454 9.5811 23.6912 9.79004C23.772 11.7879 23.7882 13.7898 23.74 15.7959C23.7055 16.0295 23.6323 16.2493 23.5203 16.4551C23.8687 16.8523 24.2349 17.2349 24.6189 17.6025C24.798 17.9718 24.6922 18.1997 24.3015 18.2861C24.2313 18.2754 24.1662 18.251 24.1062 18.2129C23.7222 17.8452 23.356 17.4627 23.0076 17.0654C22.1692 17.6053 21.3473 17.5809 20.5418 16.9922C20.2307 16.6877 20.0273 16.3215 19.9314 15.8936C19.9151 15.21 19.8988 14.5264 19.8826 13.8428C19.3617 13.2894 18.8409 12.736 18.3201 12.1826C18.3038 13.7125 18.2875 15.2425 18.2712 16.7725C18.0141 18.004 17.2573 18.5655 16.0007 18.457C15.2623 18.3046 14.7659 17.8732 14.5115 17.1631C14.4327 16.2705 14.4164 15.3753 14.4627 14.4775C14.7343 13.4995 15.3772 12.9949 16.3914 12.9639C16.3995 12.036 16.3914 11.1083 16.367 10.1807C15.8624 9.64355 15.3578 9.10645 14.8533 8.56934C14.7631 8.04883 14.9666 7.87793 15.4636 8.05664C15.7469 8.38877 16.048 8.70615 16.367 9.00879C16.3392 8.52358 16.4369 8.06787 16.6599 7.6416C16.7865 7.48232 16.9411 7.36025 17.1238 7.27539C18.8559 6.91113 20.5811 6.54492 22.2996 6.17676ZM21.7136 10.2295C21.7877 10.23 21.8447 10.2625 21.8845 10.3271C21.9089 10.864 21.9171 11.4011 21.9089 11.9385C21.1202 11.9137 20.5261 12.2392 20.1267 12.915C19.5214 12.3059 18.9273 11.6875 18.3445 11.0596C18.4566 10.9267 18.603 10.8535 18.7839 10.8398C19.77 10.6508 20.7465 10.4474 21.7136 10.2295ZM17.1726 11.0107C17.3029 11.1004 17.4087 11.2143 17.49 11.3525C17.5226 13.1266 17.5226 14.9007 17.49 16.6748C17.1963 17.6557 16.5859 17.9243 15.6589 17.4805C15.4657 17.3134 15.3273 17.11 15.2439 16.8701C15.2113 16.1051 15.2113 15.3402 15.2439 14.5752C15.5258 13.8755 16.0385 13.6151 16.782 13.7939C16.9004 13.7986 17.0063 13.7661 17.0994 13.6963C17.1713 12.8057 17.1958 11.9105 17.1726 11.0107ZM20.6882 14.6729C21.2563 15.2491 21.8178 15.835 22.3728 16.4307C22.4064 16.4713 22.3983 16.5038 22.3484 16.5283C21.563 16.8173 21.0178 16.5731 20.7127 15.7959C20.6882 15.4219 20.6801 15.0476 20.6882 14.6729Z" fill="white"/>
<path opacity="0.928" fill-rule="evenodd" clip-rule="evenodd" d="M1.15722 7.7882C1.50303 7.74635 1.82856 7.80328 2.13378 7.9591C3.91099 9.75338 4.47251 11.8774 3.81835 14.3312C3.48438 15.366 2.92285 16.2531 2.13378 16.9923C1.69565 17.218 1.25619 17.218 0.815421 16.9923C0.337849 16.5334 0.248331 16.0044 0.546866 15.4054C1.75348 14.2086 2.11155 12.7925 1.62108 11.1573C1.39684 10.5295 1.03877 9.99235 0.546866 9.54601C0.17516 8.7483 0.37861 8.16237 1.15722 7.7882ZM1.3037 8.56945C1.41878 8.56149 1.53272 8.56959 1.6455 8.59386C2.95398 9.9151 3.48295 11.502 3.23241 13.3546C3.02975 14.5333 2.50078 15.5342 1.6455 16.3575C1.26301 16.4308 1.10839 16.2761 1.18163 15.8937C2.62232 14.3619 2.98039 12.6041 2.25585 10.6202C1.99423 10.0315 1.63616 9.51066 1.18163 9.05773C1.12603 8.86627 1.16672 8.70353 1.3037 8.56945Z" fill="white"/>
</g>
<defs>
<clipPath id="clip0_11_2127">
<rect width="25" height="25" fill="white" transform="translate(0.0585938)"/>
</clipPath>
</defs>
</svg>
