<svg width="25" height="24" viewBox="0 0 25 24" fill="none" xmlns="http://www.w3.org/2000/svg">
<path opacity="0.905" fill-rule="evenodd" clip-rule="evenodd" d="M7.2069 0.117187C8.30077 0.109376 9.39451 0.117188 10.4881 0.140624C10.8007 0.343749 10.8007 0.546876 10.4881 0.749999C9.28271 0.751724 8.07962 0.782976 6.87877 0.843749C6.23818 1.16407 5.98037 1.67189 6.10533 2.36719C6.24966 2.74596 6.50747 3.0194 6.87877 3.1875C7.59437 3.24778 8.3131 3.27903 9.03502 3.28125C10.2273 3.56201 10.7898 4.31983 10.7225 5.55469C10.7147 5.71092 10.7069 5.8672 10.6991 6.02344C10.6914 6.12544 10.6524 6.21136 10.5819 6.28125C10.3901 6.33877 10.2261 6.29972 10.0897 6.16406C10.0848 5.69255 10.0536 5.2238 9.99596 4.75781C9.83963 4.32028 9.53494 4.04684 9.0819 3.9375C8.33007 3.933 7.58007 3.90175 6.8319 3.84375C5.70057 3.44879 5.25526 2.65973 5.49596 1.47656C5.77187 0.647802 6.34219 0.194677 7.2069 0.117187Z" fill="white"/>
<path opacity="0.924" fill-rule="evenodd" clip-rule="evenodd" d="M1.16016 7.28907C6.73828 7.28124 12.3164 7.28907 17.8945 7.31251C17.965 7.3824 18.0041 7.46832 18.0117 7.57032C18.0352 8.00752 18.0429 8.44505 18.0352 8.88282C19.3646 8.68121 20.5677 8.97029 21.6445 9.75001C23.0019 11.0312 23.3691 12.5546 22.7461 14.3203C21.7243 16.284 20.1227 17.0496 17.9414 16.6172C17.5285 19.0295 16.216 20.756 14.0039 21.7969C13.8822 21.8501 13.7572 21.8892 13.6289 21.9141C13.6367 22.4768 13.6289 23.0393 13.6055 23.6016C13.5664 23.7031 13.4961 23.7735 13.3945 23.8125C10.8164 23.8438 8.23828 23.8438 5.66016 23.8125C5.56678 23.7856 5.49647 23.7309 5.44922 23.6484C5.42578 23.0705 5.41795 22.4924 5.42578 21.9141C3.85394 21.3658 2.65863 20.3658 1.83985 18.9141C1.38483 18.0803 1.11921 17.1896 1.04297 16.2422C1.01172 13.3203 1.01172 10.3984 1.04297 7.47657C1.07401 7.40701 1.11307 7.34452 1.16016 7.28907ZM1.67578 7.89844C6.91017 7.89844 12.1445 7.89844 17.3789 7.89844C17.3867 10.6641 17.3789 13.4297 17.3555 16.1953C17.0484 18.5489 15.8218 20.2286 13.6758 21.2344C13.1319 21.4485 12.5694 21.5891 11.9883 21.6563C10.3633 21.6875 8.7383 21.6875 7.11328 21.6563C5.07221 21.4138 3.51751 20.4216 2.44922 18.6797C2.05835 17.9602 1.80835 17.1946 1.69922 16.3828C1.67578 13.5548 1.66797 10.7266 1.67578 7.89844ZM18.0352 9.49219C18.834 9.43135 19.6153 9.51727 20.3789 9.75001C21.9197 10.4954 22.5682 11.7219 22.3242 13.4297C21.8 15.3122 20.5578 16.1951 18.5977 16.0781C18.4064 16.0459 18.2189 15.9991 18.0352 15.9375C17.9973 15.698 18.0052 15.4558 18.0586 15.2109C19.4555 15.6859 20.5649 15.3109 21.3867 14.0859C21.8707 13.0286 21.777 12.0286 21.1055 11.0859C20.7378 10.6872 20.2925 10.4138 19.7695 10.2656C19.1936 10.2014 18.6155 10.178 18.0352 10.1953C18.0352 9.96094 18.0352 9.72657 18.0352 9.49219ZM18.0352 10.8047C18.603 10.7796 19.1655 10.8186 19.7227 10.9219C20.7712 11.3702 21.2009 12.1593 21.0117 13.2891C20.7852 14.0156 20.3086 14.4922 19.582 14.7188C19.0441 14.8577 18.5363 14.7874 18.0586 14.5078C18.0352 13.2736 18.0273 12.0391 18.0352 10.8047ZM6.03516 22.1484C7.19245 22.3092 8.35655 22.3717 9.52735 22.3359C10.207 22.3281 10.8867 22.3203 11.5664 22.3125C12.04 22.2951 12.5088 22.2404 12.9727 22.1484C12.9727 22.4922 12.9727 22.836 12.9727 23.1797C10.6602 23.1797 8.34764 23.1797 6.03516 23.1797C6.03516 22.836 6.03516 22.4922 6.03516 22.1484Z" fill="white"/>
</svg>
