<svg width="21" height="20" viewBox="0 0 21 20" fill="none" xmlns="http://www.w3.org/2000/svg">
<g clip-path="url(#clip0_11_2074)">
<path opacity="0.99" fill-rule="evenodd" clip-rule="evenodd" d="M7.46094 -0.0195312C7.61719 -0.0195312 7.77344 -0.0195312 7.92969 -0.0195312C7.99418 0.0378939 8.06582 0.0899773 8.14453 0.136719C8.77605 1.08724 9.40754 2.03776 10.0391 2.98828C10.6706 2.03776 11.3021 1.08724 11.9336 0.136719C12.0123 0.0899773 12.0839 0.0378939 12.1484 -0.0195312C12.3047 -0.0195312 12.4609 -0.0195312 12.6172 -0.0195312C12.9405 0.159424 13.0512 0.432859 12.9492 0.800781C12.3568 1.70573 11.7643 2.61068 11.1719 3.51562C13.6719 3.52864 16.1719 3.54167 18.6719 3.55469C19.3821 3.75061 19.8378 4.19984 20.0391 4.90234C20.0391 9.06902 20.0391 13.2357 20.0391 17.4023C19.8378 18.1048 19.3821 18.5541 18.6719 18.75C18.3466 18.7695 18.0211 18.776 17.6953 18.7695C17.7018 19.0563 17.6953 19.3427 17.6758 19.6289C17.6098 19.7924 17.4992 19.9096 17.3438 19.9805C17.1875 19.9805 17.0312 19.9805 16.875 19.9805C16.7196 19.9096 16.6089 19.7924 16.543 19.6289C16.5234 19.3427 16.517 19.0563 16.5234 18.7695C12.2005 18.7695 7.87762 18.7695 3.55469 18.7695C3.56118 19.0563 3.55468 19.3427 3.53516 19.6289C3.46923 19.7924 3.35855 19.9096 3.20312 19.9805C3.04688 19.9805 2.89062 19.9805 2.73438 19.9805C2.57895 19.9096 2.46827 19.7924 2.40234 19.6289C2.38282 19.3427 2.37632 19.0563 2.38281 18.7695C1.44134 18.9361 0.718688 18.6236 0.214844 17.832C0.159046 17.6833 0.100452 17.5401 0.0390625 17.4023C0.0390625 13.2357 0.0390625 9.06902 0.0390625 4.90234C0.240299 4.19984 0.696027 3.75061 1.40625 3.55469C3.90625 3.54167 6.40625 3.52864 8.90625 3.51562C8.31379 2.61068 7.72137 1.70573 7.12891 0.800781C7.02691 0.432859 7.13758 0.159424 7.46094 -0.0195312ZM1.79688 4.70703C7.29168 4.70051 12.7865 4.70703 18.2812 4.72656C18.6263 4.7591 18.8151 4.94793 18.8477 5.29297C18.8737 9.19922 18.8737 13.1055 18.8477 17.0117C18.8151 17.3568 18.6263 17.5456 18.2812 17.5781C12.7864 17.6042 7.29168 17.6042 1.79688 17.5781C1.45182 17.5456 1.26302 17.3568 1.23047 17.0117C1.20443 13.1055 1.20443 9.19922 1.23047 5.29297C1.26999 4.94754 1.45879 4.75223 1.79688 4.70703ZM3.55469 7.05078C7.09637 7.05078 10.638 7.05078 14.1797 7.05078C14.1797 9.78516 14.1797 12.5195 14.1797 15.2539C10.638 15.2539 7.09637 15.2539 3.55469 15.2539C3.55469 12.5195 3.55469 9.78516 3.55469 7.05078Z" fill="white"/>
<path opacity="0.998" fill-rule="evenodd" clip-rule="evenodd" d="M2.73438 5.87891C6.82293 5.87239 10.9115 5.87891 15 5.89844C15.1628 5.95704 15.2734 6.0677 15.332 6.23047C15.3581 9.51172 15.3581 12.793 15.332 16.0742C15.2734 16.237 15.1628 16.3477 15 16.4063C10.9114 16.4323 6.82293 16.4323 2.73438 16.4063C2.57161 16.3477 2.46094 16.237 2.40234 16.0742C2.3763 12.793 2.3763 9.51172 2.40234 6.23047C2.46827 6.067 2.57895 5.94981 2.73438 5.87891ZM3.55469 7.05079C3.55469 9.78516 3.55469 12.5195 3.55469 15.2539C7.09637 15.2539 10.638 15.2539 14.1797 15.2539C14.1797 12.5195 14.1797 9.78516 14.1797 7.05079C10.638 7.05079 7.09637 7.05079 3.55469 7.05079Z" fill="white"/>
<path opacity="0.933" fill-rule="evenodd" clip-rule="evenodd" d="M16.8752 8.22271C17.3591 8.13455 17.6325 8.32986 17.6956 8.80865C17.6329 9.29373 17.3594 9.48252 16.8752 9.37506C16.5436 9.2001 16.433 8.93318 16.5432 8.57428C16.6091 8.4108 16.7198 8.29361 16.8752 8.22271Z" fill="white"/>
<path opacity="0.933" fill-rule="evenodd" clip-rule="evenodd" d="M16.8752 10.5665C17.3591 10.4783 17.6325 10.6736 17.6956 11.1524C17.6329 11.6375 17.3594 11.8263 16.8752 11.7188C16.5436 11.5438 16.433 11.2769 16.5432 10.918C16.6091 10.7545 16.7198 10.6374 16.8752 10.5665Z" fill="white"/>
<path opacity="0.933" fill-rule="evenodd" clip-rule="evenodd" d="M16.8752 12.9102C17.3591 12.822 17.6325 13.0174 17.6956 13.4962C17.6329 13.9812 17.3594 14.17 16.8752 14.0626C16.5436 13.8876 16.433 13.6207 16.5432 13.2618C16.6091 13.0983 16.7198 12.9811 16.8752 12.9102Z" fill="white"/>
</g>
<defs>
<clipPath id="clip0_11_2074">
<rect width="20" height="20" fill="white" transform="translate(0.0585938)"/>
</clipPath>
</defs>
</svg>
