<svg width="23" height="22" viewBox="0 0 23 22" fill="none" xmlns="http://www.w3.org/2000/svg">
<g clip-path="url(#clip0_11_2146)">
<path opacity="0.975" fill-rule="evenodd" clip-rule="evenodd" d="M3.99024 -0.0214844C8.68814 -0.0214844 13.3861 -0.0214844 18.084 -0.0214844C19.019 0.233307 19.5991 0.83487 19.8242 1.7832C19.8529 7.91343 19.8529 14.0436 19.8242 20.1738C19.5991 21.1221 19.019 21.7237 18.084 21.9785C13.3861 21.9785 8.68814 21.9785 3.99024 21.9785C3.05518 21.7237 2.4751 21.1221 2.25 20.1738C2.22135 14.0436 2.22135 7.91343 2.25 1.7832C2.4751 0.83487 3.05518 0.233307 3.99024 -0.0214844ZM4.20508 1.48242C8.75981 1.47526 13.3145 1.48242 17.8691 1.50391C18.095 1.60086 18.2454 1.76557 18.3203 1.99805C18.3418 2.78568 18.349 3.57344 18.3418 4.36133C13.472 4.36133 8.6022 4.36133 3.73242 4.36133C3.72526 3.57344 3.73243 2.78568 3.75391 1.99805C3.83711 1.76463 3.9875 1.59276 4.20508 1.48242ZM3.73242 5.86523C8.6022 5.86523 13.472 5.86523 18.3418 5.86523C18.363 10.6086 18.3415 15.3494 18.2773 20.0879C18.1819 20.255 18.0458 20.3767 17.8691 20.4531C13.3145 20.4818 8.75977 20.4818 4.20508 20.4531C3.97917 20.3562 3.82878 20.1914 3.75391 19.959C3.73242 15.2611 3.72526 10.5632 3.73242 5.86523ZM10.7793 8.78711C13.0407 8.83214 14.5374 9.92071 15.2695 12.0527C15.6818 14.1561 15.0015 15.796 13.2285 16.9727C11.4986 17.8544 9.85143 17.7255 8.28711 16.5859C6.89974 15.3743 6.40559 13.8632 6.80469 12.0527C7.27747 10.52 8.27293 9.49597 9.79102 8.98047C10.1229 8.89668 10.4523 8.83223 10.7793 8.78711Z" fill="white"/>
<path opacity="0.932" fill-rule="evenodd" clip-rule="evenodd" d="M5.66605 2.16995C6.4452 2.12543 6.75316 2.4835 6.58988 3.24417C6.29795 3.68417 5.9184 3.77727 5.4512 3.52347C5.06629 3.1378 5.05198 2.73675 5.40824 2.32034C5.50393 2.27991 5.58986 2.22978 5.66605 2.16995Z" fill="white"/>
<path opacity="0.932" fill-rule="evenodd" clip-rule="evenodd" d="M7.85747 2.16985C8.58003 2.1118 8.9023 2.44123 8.82427 3.15813C8.55408 3.66804 8.16023 3.78978 7.64263 3.52337C7.27782 3.16121 7.24916 2.77449 7.55669 2.36321C7.65973 2.29772 7.75998 2.23327 7.85747 2.16985Z" fill="white"/>
<path opacity="0.966" fill-rule="evenodd" clip-rule="evenodd" d="M10.6504 7.28315C13.2235 7.24564 15.1213 8.34848 16.3438 10.5917C17.3064 12.8418 17.063 14.9472 15.6133 16.9082C13.8666 18.8544 11.7254 19.4775 9.18947 18.7773C7.21626 18.0788 5.93437 16.7253 5.34377 14.7167C4.80932 12.3388 5.43237 10.3264 7.21291 8.67964C8.22018 7.86791 9.36603 7.40239 10.6504 7.28315ZM10.7793 8.78706C10.4523 8.83218 10.1229 8.89663 9.79103 8.98042C8.27295 9.49591 7.27749 10.52 6.8047 12.0527C6.40561 13.8631 6.89975 15.3742 8.28713 16.5859C9.85145 17.7255 11.4986 17.8544 13.2285 16.9726C15.0015 15.796 15.6818 14.156 15.2695 12.0527C14.5374 9.92066 13.0407 8.83209 10.7793 8.78706Z" fill="white"/>
</g>
<defs>
<clipPath id="clip0_11_2146">
<rect width="22" height="22" fill="white" transform="translate(0.0585938)"/>
</clipPath>
</defs>
</svg>
